<?xml version="1.0" encoding="UTF-8" standalone="no"?>
<!DOCTYPE svg PUBLIC "-//W3C//DTD SVG 1.1//EN"
 "http://www.w3.org/Graphics/SVG/1.1/DTD/svg11.dtd">
<!-- Generated by graphviz version 2.43.0 (0)
 -->
<!-- Title: graph_building1_basement1 Pages: 1 -->
<svg width="624pt" height="184pt"
 viewBox="0.00 0.00 624.34 184.00" xmlns="http://www.w3.org/2000/svg" xmlns:xlink="http://www.w3.org/1999/xlink">
<g id="graph0" class="graph" transform="scale(1 1) rotate(0) translate(4 180)">
<title>graph_building1_basement1</title>
<polygon fill="white" stroke="transparent" points="-4,4 -4,-180 620.34,-180 620.34,4 -4,4"/>
<g id="clust1" class="cluster">
<title>cluster_upperapartmentwallhidden</title>
<polygon fill="none" stroke="black" points="316.34,-8 316.34,-168 608.34,-168 608.34,-8 316.34,-8"/>
</g>
<!-- basementdoor -->
<g id="node1" class="node">
<title>basementdoor</title>
<ellipse fill="none" stroke="black" cx="77.34" cy="-142" rx="77.19" ry="18"/>
<text text-anchor="middle" x="77.34" y="-138.3" font-family="Times,serif" font-size="14.00">basementdoor</text>
</g>
<!-- elevator -->
<g id="node2" class="node">
<title>elevator</title>
<ellipse fill="none" stroke="black" cx="239.34" cy="-142" rx="48.99" ry="18"/>
<text text-anchor="middle" x="239.34" y="-138.3" font-family="Times,serif" font-size="14.00">elevator</text>
</g>
<!-- upperapartmentdoor -->
<g id="node3" class="node">
<title>upperapartmentdoor</title>
<ellipse fill="none" stroke="black" cx="462.34" cy="-34" rx="107.78" ry="18"/>
<text text-anchor="middle" x="462.34" y="-30.3" font-family="Times,serif" font-size="14.00">upperapartmentdoor</text>
</g>
<!-- upperapartmentwallhidden -->
<g id="node4" class="node">
<title>upperapartmentwallhidden</title>
<ellipse fill="none" stroke="black" cx="462.34" cy="-142" rx="137.58" ry="18"/>
<text text-anchor="middle" x="462.34" y="-138.3" font-family="Times,serif" font-size="14.00">upperapartmentwallhidden</text>
</g>
<!-- upperapartmentwallhidden&#45;&gt;upperapartmentdoor -->
<g id="edge1" class="edge">
<title>upperapartmentwallhidden&#45;&gt;upperapartmentdoor</title>
<path fill="none" stroke="black" d="M462.34,-123.97C462.34,-107.38 462.34,-81.88 462.34,-62.43"/>
<polygon fill="black" stroke="black" points="465.84,-62.34 462.34,-52.34 458.84,-62.34 465.84,-62.34"/>
</g>
</g>
</svg>
