<?xml version="1.0" encoding="UTF-8" standalone="no"?>
<!DOCTYPE svg PUBLIC "-//W3C//DTD SVG 1.1//EN"
 "http://www.w3.org/Graphics/SVG/1.1/DTD/svg11.dtd">
<!-- Generated by graphviz version 2.43.0 (0)
 -->
<!-- Title: graph_building1_basement1 Pages: 1 -->
<svg width="752pt" height="184pt"
 viewBox="0.00 0.00 752.19 184.00" xmlns="http://www.w3.org/2000/svg" xmlns:xlink="http://www.w3.org/1999/xlink">
<g id="graph0" class="graph" transform="scale(1 1) rotate(0) translate(4 180)">
<title>graph_building1_basement1</title>
<polygon fill="white" stroke="transparent" points="-4,4 -4,-180 748.19,-180 748.19,4 -4,4"/>
<g id="clust1" class="cluster">
<title>cluster_upperapartmentwallhiddenzone</title>
<polygon fill="none" stroke="black" points="402.19,-8 402.19,-168 736.19,-168 736.19,-8 402.19,-8"/>
</g>
<!-- elevatorzone -->
<g id="node1" class="node">
<title>elevatorzone</title>
<ellipse fill="none" stroke="black" cx="70.19" cy="-142" rx="70.39" ry="18"/>
<text text-anchor="middle" x="70.19" y="-138.3" font-family="Times,serif" font-size="14.00">elevatorzone</text>
</g>
<!-- basementdoorzone -->
<g id="node2" class="node">
<title>basementdoorzone</title>
<ellipse fill="none" stroke="black" cx="275.19" cy="-142" rx="98.58" ry="18"/>
<text text-anchor="middle" x="275.19" y="-138.3" font-family="Times,serif" font-size="14.00">basementdoorzone</text>
</g>
<!-- upperapartmentdoorzone -->
<g id="node3" class="node">
<title>upperapartmentdoorzone</title>
<ellipse fill="none" stroke="black" cx="569.19" cy="-34" rx="129.18" ry="18"/>
<text text-anchor="middle" x="569.19" y="-30.3" font-family="Times,serif" font-size="14.00">upperapartmentdoorzone</text>
</g>
<!-- upperapartmentwallhiddenzone -->
<g id="node4" class="node">
<title>upperapartmentwallhiddenzone</title>
<ellipse fill="none" stroke="black" cx="569.19" cy="-142" rx="159.47" ry="18"/>
<text text-anchor="middle" x="569.19" y="-138.3" font-family="Times,serif" font-size="14.00">upperapartmentwallhiddenzone</text>
</g>
<!-- upperapartmentwallhiddenzone&#45;&gt;upperapartmentdoorzone -->
<g id="edge1" class="edge">
<title>upperapartmentwallhiddenzone&#45;&gt;upperapartmentdoorzone</title>
<path fill="none" stroke="black" d="M569.19,-123.97C569.19,-107.38 569.19,-81.88 569.19,-62.43"/>
<polygon fill="black" stroke="black" points="572.69,-62.34 569.19,-52.34 565.69,-62.34 572.69,-62.34"/>
</g>
</g>
</svg>
