<?xml version="1.0" encoding="UTF-8" standalone="no"?>
<!DOCTYPE svg PUBLIC "-//W3C//DTD SVG 1.1//EN"
 "http://www.w3.org/Graphics/SVG/1.1/DTD/svg11.dtd">
<!-- Generated by graphviz version 2.43.0 (0)
 -->
<!-- Title: graph_apartment Pages: 1 -->
<svg width="715pt" height="292pt"
 viewBox="0.00 0.00 715.00 292.00" xmlns="http://www.w3.org/2000/svg" xmlns:xlink="http://www.w3.org/1999/xlink">
<g id="graph0" class="graph" transform="scale(1 1) rotate(0) translate(4 288)">
<title>graph_apartment</title>
<polygon fill="white" stroke="transparent" points="-4,4 -4,-288 711,-288 711,4 -4,4"/>
<g id="clust1" class="cluster">
<title>cluster_playerapartmentzone</title>
<polygon fill="none" stroke="black" points="8,-8 8,-276 324,-276 324,-8 8,-8"/>
</g>
<g id="clust2" class="cluster">
<title>cluster_hallwayzone</title>
<polygon fill="none" stroke="black" points="543,-8 543,-168 699,-168 699,-8 543,-8"/>
</g>
<!-- playerapartmentzone -->
<g id="node1" class="node">
<title>playerapartmentzone</title>
<ellipse fill="none" stroke="black" cx="206" cy="-250" rx="110.48" ry="18"/>
<text text-anchor="middle" x="206" y="-246.3" font-family="Times,serif" font-size="14.00">playerapartmentzone</text>
</g>
<!-- meditationzone -->
<g id="node3" class="node">
<title>meditationzone</title>
<ellipse fill="none" stroke="black" cx="99" cy="-142" rx="82.59" ry="18"/>
<text text-anchor="middle" x="99" y="-138.3" font-family="Times,serif" font-size="14.00">meditationzone</text>
</g>
<!-- playerapartmentzone&#45;&gt;meditationzone -->
<g id="edge2" class="edge">
<title>playerapartmentzone&#45;&gt;meditationzone</title>
<path fill="none" stroke="black" d="M188.81,-231.97C171,-214.33 143.02,-186.61 123.03,-166.81"/>
<polygon fill="black" stroke="black" points="125.36,-164.19 115.8,-159.64 120.44,-169.16 125.36,-164.19"/>
</g>
<!-- playerdoorzone -->
<g id="node5" class="node">
<title>playerdoorzone</title>
<ellipse fill="none" stroke="black" cx="435" cy="-142" rx="82.59" ry="18"/>
<text text-anchor="middle" x="435" y="-138.3" font-family="Times,serif" font-size="14.00">playerdoorzone</text>
</g>
<!-- playerapartmentzone&#45;&gt;playerdoorzone -->
<g id="edge7" class="edge">
<title>playerapartmentzone&#45;&gt;playerdoorzone</title>
<path fill="none" stroke="black" d="M231.66,-232.44C268.74,-213.26 336.66,-181.75 383.99,-161.71"/>
<polygon fill="black" stroke="black" points="385.6,-164.83 393.47,-157.74 382.89,-158.38 385.6,-164.83"/>
</g>
<!-- hallwayzone -->
<g id="node6" class="node">
<title>hallwayzone</title>
<ellipse fill="none" stroke="black" cx="621" cy="-142" rx="67.69" ry="18"/>
<text text-anchor="middle" x="621" y="-138.3" font-family="Times,serif" font-size="14.00">hallwayzone</text>
</g>
<!-- playerapartmentzone&#45;&gt;hallwayzone -->
<g id="edge10" class="edge">
<title>playerapartmentzone&#45;&gt;hallwayzone</title>
<path fill="none" stroke="black" d="M275.48,-235.94C346.43,-220.54 458.45,-193.76 554,-168 563.86,-165.34 574.33,-162.38 584.11,-159.45"/>
<polygon fill="black" stroke="black" points="586.75,-153.43 589.65,-163 587.73,-163.58 584.84,-154 586.75,-153.43"/>
<polyline fill="none" stroke="black" points="589.16,-157.92 584.37,-159.37 "/>
</g>
<!-- bedzone -->
<g id="node7" class="node">
<title>bedzone</title>
<ellipse fill="none" stroke="black" cx="267" cy="-142" rx="49.29" ry="18"/>
<text text-anchor="middle" x="267" y="-138.3" font-family="Times,serif" font-size="14.00">bedzone</text>
</g>
<!-- playerapartmentzone&#45;&gt;bedzone -->
<g id="edge3" class="edge">
<title>playerapartmentzone&#45;&gt;bedzone</title>
<path fill="none" stroke="black" d="M215.8,-231.97C225.63,-214.89 240.88,-188.38 252.19,-168.74"/>
<polygon fill="black" stroke="black" points="255.27,-170.4 257.22,-159.99 249.2,-166.91 255.27,-170.4"/>
</g>
<!-- elevatorzone -->
<g id="node2" class="node">
<title>elevatorzone</title>
<ellipse fill="none" stroke="black" cx="621" cy="-34" rx="70.39" ry="18"/>
<text text-anchor="middle" x="621" y="-30.3" font-family="Times,serif" font-size="14.00">elevatorzone</text>
</g>
<!-- teazone -->
<g id="node4" class="node">
<title>teazone</title>
<ellipse fill="none" stroke="black" cx="99" cy="-34" rx="46.59" ry="18"/>
<text text-anchor="middle" x="99" y="-30.3" font-family="Times,serif" font-size="14.00">teazone</text>
</g>
<!-- meditationzone&#45;&gt;teazone -->
<g id="edge1" class="edge">
<title>meditationzone&#45;&gt;teazone</title>
<path fill="none" stroke="black" d="M99,-123.97C99,-107.38 99,-81.88 99,-62.43"/>
<polygon fill="black" stroke="black" points="102.5,-62.34 99,-52.34 95.5,-62.34 102.5,-62.34"/>
</g>
<!-- playerdoorzone&#45;&gt;playerapartmentzone -->
<g id="edge8" class="edge">
<title>playerdoorzone&#45;&gt;playerapartmentzone</title>
<path fill="none" stroke="black" d="M409.99,-159.23C373.55,-178.11 306.45,-209.28 258.93,-229.47"/>
<polygon fill="black" stroke="black" points="257.56,-226.25 249.7,-233.36 260.28,-232.7 257.56,-226.25"/>
</g>
<!-- playerdoorzone&#45;&gt;hallwayzone -->
<g id="edge6" class="edge">
<title>playerdoorzone&#45;&gt;hallwayzone</title>
<path fill="none" stroke="black" d="M517.83,-142C526.23,-142 534.64,-142 543.04,-142"/>
<polygon fill="black" stroke="black" points="543.29,-145.5 553.29,-142 543.29,-138.5 543.29,-145.5"/>
</g>
<!-- hallwayzone&#45;&gt;playerapartmentzone -->
<g id="edge9" class="edge">
<title>hallwayzone&#45;&gt;playerapartmentzone</title>
<path fill="none" stroke="black" d="M569.42,-153.7C552.65,-158.26 534.49,-163.55 518,-168 428.81,-192.05 325.25,-216.99 262.4,-232.73"/>
<polygon fill="black" stroke="black" points="259.38,-238.64 256.95,-228.94 258.89,-228.45 261.32,-238.15 259.38,-238.64"/>
<polyline fill="none" stroke="black" points="257.2,-234.03 262.05,-232.81 "/>
</g>
<!-- hallwayzone&#45;&gt;elevatorzone -->
<g id="edge4" class="edge">
<title>hallwayzone&#45;&gt;elevatorzone</title>
<path fill="none" stroke="black" d="M621,-123.97C621,-107.38 621,-81.88 621,-62.43"/>
<polygon fill="black" stroke="black" points="624.5,-62.34 621,-52.34 617.5,-62.34 624.5,-62.34"/>
</g>
<!-- hallwayzone&#45;&gt;playerdoorzone -->
<g id="edge5" class="edge">
<title>hallwayzone&#45;&gt;playerdoorzone</title>
<path fill="none" stroke="black" d="M553.29,-142C544.89,-142 536.48,-142 528.08,-142"/>
<polygon fill="black" stroke="black" points="527.83,-138.5 517.83,-142 527.83,-145.5 527.83,-138.5"/>
</g>
</g>
</svg>
