<?xml version="1.0" encoding="UTF-8" standalone="no"?>
<!DOCTYPE svg PUBLIC "-//W3C//DTD SVG 1.1//EN"
 "http://www.w3.org/Graphics/SVG/1.1/DTD/svg11.dtd">
<!-- Generated by graphviz version 2.43.0 (0)
 -->
<!-- Title: graph_apartment Pages: 1 -->
<svg width="827pt" height="292pt"
 viewBox="0.00 0.00 827.00 292.00" xmlns="http://www.w3.org/2000/svg" xmlns:xlink="http://www.w3.org/1999/xlink">
<g id="graph0" class="graph" transform="scale(1 1) rotate(0) translate(4 288)">
<title>graph_apartment</title>
<polygon fill="white" stroke="transparent" points="-4,4 -4,-288 823,-288 823,4 -4,4"/>
<g id="clust1" class="cluster">
<title>cluster_hallwayzone</title>
<polygon fill="none" stroke="black" points="8,-116 8,-276 164,-276 164,-116 8,-116"/>
</g>
<g id="clust2" class="cluster">
<title>cluster_playerapartmentzone</title>
<polygon fill="none" stroke="black" points="366,-8 366,-168 811,-168 811,-8 366,-8"/>
</g>
<!-- meditationzone -->
<g id="node1" class="node">
<title>meditationzone</title>
<ellipse fill="none" stroke="black" cx="457" cy="-34" rx="82.59" ry="18"/>
<text text-anchor="middle" x="457" y="-30.3" font-family="Times,serif" font-size="14.00">meditationzone</text>
</g>
<!-- teazone -->
<g id="node2" class="node">
<title>teazone</title>
<ellipse fill="none" stroke="black" cx="622" cy="-34" rx="46.59" ry="18"/>
<text text-anchor="middle" x="622" y="-30.3" font-family="Times,serif" font-size="14.00">teazone</text>
</g>
<!-- bedzone -->
<g id="node3" class="node">
<title>bedzone</title>
<ellipse fill="none" stroke="black" cx="754" cy="-34" rx="49.29" ry="18"/>
<text text-anchor="middle" x="754" y="-30.3" font-family="Times,serif" font-size="14.00">bedzone</text>
</g>
<!-- hallwayzone -->
<g id="node4" class="node">
<title>hallwayzone</title>
<ellipse fill="none" stroke="black" cx="88" cy="-250" rx="67.69" ry="18"/>
<text text-anchor="middle" x="88" y="-246.3" font-family="Times,serif" font-size="14.00">hallwayzone</text>
</g>
<!-- elevatorzone -->
<g id="node5" class="node">
<title>elevatorzone</title>
<ellipse fill="none" stroke="black" cx="86" cy="-142" rx="70.39" ry="18"/>
<text text-anchor="middle" x="86" y="-138.3" font-family="Times,serif" font-size="14.00">elevatorzone</text>
</g>
<!-- hallwayzone&#45;&gt;elevatorzone -->
<g id="edge1" class="edge">
<title>hallwayzone&#45;&gt;elevatorzone</title>
<path fill="none" stroke="black" d="M87.68,-231.97C87.37,-215.38 86.88,-189.88 86.52,-170.43"/>
<polygon fill="black" stroke="black" points="90.02,-170.27 86.33,-160.34 83.02,-170.4 90.02,-170.27"/>
</g>
<!-- playerdoorzone -->
<g id="node6" class="node">
<title>playerdoorzone</title>
<ellipse fill="none" stroke="black" cx="275" cy="-142" rx="82.59" ry="18"/>
<text text-anchor="middle" x="275" y="-138.3" font-family="Times,serif" font-size="14.00">playerdoorzone</text>
</g>
<!-- hallwayzone&#45;&gt;playerdoorzone -->
<g id="edge5" class="edge">
<title>hallwayzone&#45;&gt;playerdoorzone</title>
<path fill="none" stroke="black" d="M106.74,-232.67C135.62,-213.85 189.91,-182.94 229.32,-162.78"/>
<polygon fill="black" stroke="black" points="231.14,-165.78 238.49,-158.15 227.99,-159.53 231.14,-165.78"/>
</g>
<!-- playerapartmentzone -->
<g id="node7" class="node">
<title>playerapartmentzone</title>
<ellipse fill="none" stroke="black" cx="504" cy="-142" rx="110.48" ry="18"/>
<text text-anchor="middle" x="504" y="-138.3" font-family="Times,serif" font-size="14.00">playerapartmentzone</text>
</g>
<!-- hallwayzone&#45;&gt;playerapartmentzone -->
<g id="edge9" class="edge">
<title>hallwayzone&#45;&gt;playerapartmentzone</title>
<path fill="none" stroke="black" d="M139.15,-238.15C218.09,-219.57 367.94,-181.51 449.07,-159.58"/>
<polygon fill="black" stroke="black" points="452.04,-153.59 454.65,-163.24 452.72,-163.77 450.1,-154.12 452.04,-153.59"/>
<polyline fill="none" stroke="black" points="454.31,-158.16 449.48,-159.47 "/>
</g>
<!-- playerdoorzone&#45;&gt;hallwayzone -->
<g id="edge6" class="edge">
<title>playerdoorzone&#45;&gt;hallwayzone</title>
<path fill="none" stroke="black" d="M255.84,-159.61C226.53,-178.66 171.69,-209.84 132.38,-229.89"/>
<polygon fill="black" stroke="black" points="130.6,-226.86 123.24,-234.48 133.75,-233.12 130.6,-226.86"/>
</g>
<!-- playerdoorzone&#45;&gt;playerapartmentzone -->
<g id="edge8" class="edge">
<title>playerdoorzone&#45;&gt;playerapartmentzone</title>
<path fill="none" stroke="black" d="M357.74,-142C366.3,-142 374.85,-142 383.41,-142"/>
<polygon fill="black" stroke="black" points="383.45,-145.5 393.45,-142 383.45,-138.5 383.45,-145.5"/>
</g>
<!-- playerapartmentzone&#45;&gt;meditationzone -->
<g id="edge3" class="edge">
<title>playerapartmentzone&#45;&gt;meditationzone</title>
<path fill="none" stroke="black" d="M496.45,-123.97C488.95,-107.05 477.34,-80.86 468.65,-61.28"/>
<polygon fill="black" stroke="black" points="471.79,-59.71 464.53,-51.99 465.39,-62.55 471.79,-59.71"/>
</g>
<!-- playerapartmentzone&#45;&gt;teazone -->
<g id="edge4" class="edge">
<title>playerapartmentzone&#45;&gt;teazone</title>
<path fill="none" stroke="black" d="M522.7,-124.2C542.61,-106.32 574.25,-77.9 596.45,-57.95"/>
<polygon fill="black" stroke="black" points="599.06,-60.31 604.16,-51.02 594.38,-55.1 599.06,-60.31"/>
</g>
<!-- playerapartmentzone&#45;&gt;bedzone -->
<g id="edge2" class="edge">
<title>playerapartmentzone&#45;&gt;bedzone</title>
<path fill="none" stroke="black" d="M541.7,-125.02C588.02,-105.37 666.3,-72.19 713.76,-52.06"/>
<polygon fill="black" stroke="black" points="715.27,-55.23 723.11,-48.1 712.53,-48.78 715.27,-55.23"/>
</g>
<!-- playerapartmentzone&#45;&gt;hallwayzone -->
<g id="edge10" class="edge">
<title>playerapartmentzone&#45;&gt;hallwayzone</title>
<path fill="none" stroke="black" d="M440.27,-156.83C355.96,-176.95 210.04,-214.12 135.01,-234.57"/>
<polygon fill="black" stroke="black" points="132.45,-240.46 129.81,-230.81 131.74,-230.28 134.38,-239.93 132.45,-240.46"/>
<polyline fill="none" stroke="black" points="130.17,-235.9 134.99,-234.58 "/>
</g>
<!-- playerapartmentzone&#45;&gt;playerdoorzone -->
<g id="edge7" class="edge">
<title>playerapartmentzone&#45;&gt;playerdoorzone</title>
<path fill="none" stroke="black" d="M393.45,-142C384.9,-142 376.34,-142 367.79,-142"/>
<polygon fill="black" stroke="black" points="367.74,-138.5 357.74,-142 367.74,-145.5 367.74,-138.5"/>
</g>
</g>
</svg>
