<?xml version="1.0" encoding="UTF-8" standalone="no"?>
<!DOCTYPE svg PUBLIC "-//W3C//DTD SVG 1.1//EN"
 "http://www.w3.org/Graphics/SVG/1.1/DTD/svg11.dtd">
<!-- Generated by graphviz version 2.43.0 (0)
 -->
<!-- Title: graph_apartment Pages: 1 -->
<svg width="517pt" height="384pt"
 viewBox="0.00 0.00 517.00 384.00" xmlns="http://www.w3.org/2000/svg" xmlns:xlink="http://www.w3.org/1999/xlink">
<g id="graph0" class="graph" transform="scale(1 1) rotate(0) translate(4 380)">
<title>graph_apartment</title>
<polygon fill="white" stroke="transparent" points="-4,4 -4,-380 513,-380 513,4 -4,4"/>
<g id="clust1" class="cluster">
<title>cluster_playerapartmentzone</title>
<polygon fill="none" stroke="black" points="8,-8 8,-276 324,-276 324,-8 8,-8"/>
</g>
<g id="clust2" class="cluster">
<title>cluster_hallwayzone</title>
<polygon fill="none" stroke="black" points="345,-116 345,-276 501,-276 501,-116 345,-116"/>
</g>
<!-- playerdoorzone -->
<g id="node1" class="node">
<title>playerdoorzone</title>
<ellipse fill="none" stroke="black" cx="313" cy="-358" rx="82.59" ry="18"/>
<text text-anchor="middle" x="313" y="-354.3" font-family="Times,serif" font-size="14.00">playerdoorzone</text>
</g>
<!-- playerapartmentzone -->
<g id="node2" class="node">
<title>playerapartmentzone</title>
<ellipse fill="none" stroke="black" cx="206" cy="-250" rx="110.48" ry="18"/>
<text text-anchor="middle" x="206" y="-246.3" font-family="Times,serif" font-size="14.00">playerapartmentzone</text>
</g>
<!-- playerdoorzone&#45;&gt;playerapartmentzone -->
<g id="edge6" class="edge">
<title>playerdoorzone&#45;&gt;playerapartmentzone</title>
<path fill="none" stroke="black" d="M306.04,-339.97C292,-322.17 264.08,-294.12 240.91,-274.28"/>
<polygon fill="black" stroke="black" points="242.86,-271.36 232.94,-267.64 238.38,-276.73 242.86,-271.36"/>
</g>
<!-- hallwayzone -->
<g id="node6" class="node">
<title>hallwayzone</title>
<ellipse fill="none" stroke="black" cx="421" cy="-250" rx="67.69" ry="18"/>
<text text-anchor="middle" x="421" y="-246.3" font-family="Times,serif" font-size="14.00">hallwayzone</text>
</g>
<!-- playerdoorzone&#45;&gt;hallwayzone -->
<g id="edge8" class="edge">
<title>playerdoorzone&#45;&gt;hallwayzone</title>
<path fill="none" stroke="black" d="M339.42,-340.9C361.08,-323.59 389.87,-295.86 407.39,-275.78"/>
<polygon fill="black" stroke="black" points="410.2,-277.87 413.94,-267.95 404.83,-273.37 410.2,-277.87"/>
</g>
<!-- playerapartmentzone&#45;&gt;playerdoorzone -->
<g id="edge5" class="edge">
<title>playerapartmentzone&#45;&gt;playerdoorzone</title>
<path fill="none" stroke="black" d="M213.18,-268.31C227.43,-286.3 255.59,-314.53 278.77,-334.29"/>
<polygon fill="black" stroke="black" points="276.8,-337.21 286.73,-340.9 281.27,-331.82 276.8,-337.21"/>
</g>
<!-- meditationzone -->
<g id="node4" class="node">
<title>meditationzone</title>
<ellipse fill="none" stroke="black" cx="99" cy="-142" rx="82.59" ry="18"/>
<text text-anchor="middle" x="99" y="-138.3" font-family="Times,serif" font-size="14.00">meditationzone</text>
</g>
<!-- playerapartmentzone&#45;&gt;meditationzone -->
<g id="edge2" class="edge">
<title>playerapartmentzone&#45;&gt;meditationzone</title>
<path fill="none" stroke="black" d="M188.81,-231.97C171,-214.33 143.02,-186.61 123.03,-166.81"/>
<polygon fill="black" stroke="black" points="125.36,-164.19 115.8,-159.64 120.44,-169.16 125.36,-164.19"/>
</g>
<!-- bedzone -->
<g id="node5" class="node">
<title>bedzone</title>
<ellipse fill="none" stroke="black" cx="267" cy="-142" rx="49.29" ry="18"/>
<text text-anchor="middle" x="267" y="-138.3" font-family="Times,serif" font-size="14.00">bedzone</text>
</g>
<!-- playerapartmentzone&#45;&gt;bedzone -->
<g id="edge1" class="edge">
<title>playerapartmentzone&#45;&gt;bedzone</title>
<path fill="none" stroke="black" d="M215.8,-231.97C225.63,-214.89 240.88,-188.38 252.19,-168.74"/>
<polygon fill="black" stroke="black" points="255.27,-170.4 257.22,-159.99 249.2,-166.91 255.27,-170.4"/>
</g>
<!-- playerapartmentzone&#45;&gt;hallwayzone -->
<g id="edge10" class="edge">
<title>playerapartmentzone&#45;&gt;hallwayzone</title>
<path fill="none" stroke="black" d="M316.86,-250C327.23,-250 337.6,-250 347.97,-250"/>
<polygon fill="black" stroke="black" points="352.06,-245 352.06,-255 350.06,-255 350.06,-245 352.06,-245"/>
<polyline fill="none" stroke="black" points="353.06,-250 348.06,-250 "/>
</g>
<!-- teazone -->
<g id="node3" class="node">
<title>teazone</title>
<ellipse fill="none" stroke="black" cx="99" cy="-34" rx="46.59" ry="18"/>
<text text-anchor="middle" x="99" y="-30.3" font-family="Times,serif" font-size="14.00">teazone</text>
</g>
<!-- meditationzone&#45;&gt;teazone -->
<g id="edge3" class="edge">
<title>meditationzone&#45;&gt;teazone</title>
<path fill="none" stroke="black" d="M99,-123.97C99,-107.38 99,-81.88 99,-62.43"/>
<polygon fill="black" stroke="black" points="102.5,-62.34 99,-52.34 95.5,-62.34 102.5,-62.34"/>
</g>
<!-- hallwayzone&#45;&gt;playerdoorzone -->
<g id="edge7" class="edge">
<title>hallwayzone&#45;&gt;playerdoorzone</title>
<path fill="none" stroke="black" d="M394.77,-266.95C373.13,-284.22 344.28,-311.99 326.7,-332.13"/>
<polygon fill="black" stroke="black" points="323.87,-330.06 320.12,-339.97 329.23,-334.56 323.87,-330.06"/>
</g>
<!-- hallwayzone&#45;&gt;playerapartmentzone -->
<g id="edge9" class="edge">
<title>hallwayzone&#45;&gt;playerapartmentzone</title>
<path fill="none" stroke="black" d="M353.06,-250C342.69,-250 332.32,-250 321.95,-250"/>
<polygon fill="black" stroke="black" points="317.86,-255 317.86,-245 319.86,-245 319.86,-255 317.86,-255"/>
<polyline fill="none" stroke="black" points="316.86,-250 321.86,-250 "/>
</g>
<!-- elevatorzone -->
<g id="node7" class="node">
<title>elevatorzone</title>
<ellipse fill="none" stroke="black" cx="423" cy="-142" rx="70.39" ry="18"/>
<text text-anchor="middle" x="423" y="-138.3" font-family="Times,serif" font-size="14.00">elevatorzone</text>
</g>
<!-- hallwayzone&#45;&gt;elevatorzone -->
<g id="edge4" class="edge">
<title>hallwayzone&#45;&gt;elevatorzone</title>
<path fill="none" stroke="black" d="M421.32,-231.97C421.63,-215.38 422.12,-189.88 422.48,-170.43"/>
<polygon fill="black" stroke="black" points="425.98,-170.4 422.67,-160.34 418.98,-170.27 425.98,-170.4"/>
</g>
</g>
</svg>
