<?xml version="1.0" encoding="UTF-8" standalone="no"?>
<!DOCTYPE svg PUBLIC "-//W3C//DTD SVG 1.1//EN"
 "http://www.w3.org/Graphics/SVG/1.1/DTD/svg11.dtd">
<!-- Generated by graphviz version 2.43.0 (0)
 -->
<!-- Title: graph_apartment Pages: 1 -->
<svg width="799pt" height="292pt"
 viewBox="0.00 0.00 798.54 292.00" xmlns="http://www.w3.org/2000/svg" xmlns:xlink="http://www.w3.org/1999/xlink">
<g id="graph0" class="graph" transform="scale(1 1) rotate(0) translate(4 288)">
<title>graph_apartment</title>
<polygon fill="white" stroke="transparent" points="-4,4 -4,-288 794.54,-288 794.54,4 -4,4"/>
<g id="clust1" class="cluster">
<title>cluster_hallwayzone</title>
<polygon fill="none" stroke="black" points="8,-116 8,-276 164,-276 164,-116 8,-116"/>
</g>
<g id="clust2" class="cluster">
<title>cluster_playerapartmentzone</title>
<polygon fill="none" stroke="black" points="172,-8 172,-168 617,-168 617,-8 172,-8"/>
</g>
<!-- hallwayzone -->
<g id="node1" class="node">
<title>hallwayzone</title>
<ellipse fill="none" stroke="black" cx="88" cy="-250" rx="67.69" ry="18"/>
<text text-anchor="middle" x="88" y="-246.3" font-family="Times,serif" font-size="14.00">hallwayzone</text>
</g>
<!-- playerapartmentzone -->
<g id="node2" class="node">
<title>playerapartmentzone</title>
<ellipse fill="none" stroke="black" cx="397" cy="-142" rx="110.48" ry="18"/>
<text text-anchor="middle" x="397" y="-138.3" font-family="Times,serif" font-size="14.00">playerapartmentzone</text>
</g>
<!-- hallwayzone&#45;&gt;playerapartmentzone -->
<g id="edge9" class="edge">
<title>hallwayzone&#45;&gt;playerapartmentzone</title>
<path fill="none" stroke="black" d="M133.43,-236.53C193.47,-217.79 297.4,-182.29 355.44,-160.83"/>
<polygon fill="black" stroke="black" points="357.55,-154.71 361.03,-164.08 359.15,-164.78 355.67,-155.41 357.55,-154.71"/>
<polyline fill="none" stroke="black" points="360.22,-159.05 355.54,-160.79 "/>
</g>
<!-- elevatorzone -->
<g id="node4" class="node">
<title>elevatorzone</title>
<ellipse fill="none" stroke="black" cx="86" cy="-142" rx="70.39" ry="18"/>
<text text-anchor="middle" x="86" y="-138.3" font-family="Times,serif" font-size="14.00">elevatorzone</text>
</g>
<!-- hallwayzone&#45;&gt;elevatorzone -->
<g id="edge1" class="edge">
<title>hallwayzone&#45;&gt;elevatorzone</title>
<path fill="none" stroke="black" d="M87.68,-231.97C87.37,-215.38 86.88,-189.88 86.52,-170.43"/>
<polygon fill="black" stroke="black" points="90.02,-170.27 86.33,-160.34 83.02,-170.4 90.02,-170.27"/>
</g>
<!-- playerdoorzone -->
<g id="node5" class="node">
<title>playerdoorzone</title>
<ellipse fill="none" stroke="black" cx="708" cy="-142" rx="82.59" ry="18"/>
<text text-anchor="middle" x="708" y="-138.3" font-family="Times,serif" font-size="14.00">playerdoorzone</text>
</g>
<!-- hallwayzone&#45;&gt;playerdoorzone -->
<g id="edge5" class="edge">
<title>hallwayzone&#45;&gt;playerdoorzone</title>
<path fill="none" stroke="black" d="M146.98,-241.19C243.41,-229.21 439.1,-203.85 603,-168 615.6,-165.24 629.07,-161.69 642.14,-158.12"/>
<polygon fill="black" stroke="black" points="643.32,-161.43 652.04,-155.41 641.47,-154.68 643.32,-161.43"/>
</g>
<!-- playerapartmentzone&#45;&gt;hallwayzone -->
<g id="edge10" class="edge">
<title>playerapartmentzone&#45;&gt;hallwayzone</title>
<path fill="none" stroke="black" d="M343.93,-157.87C281.77,-177.51 181.1,-212 126.13,-232.45"/>
<polygon fill="black" stroke="black" points="123.96,-238.59 120.46,-229.23 122.34,-228.53 125.84,-237.89 123.96,-238.59"/>
<polyline fill="none" stroke="black" points="121.28,-234.26 125.96,-232.51 "/>
</g>
<!-- bedzone -->
<g id="node3" class="node">
<title>bedzone</title>
<ellipse fill="none" stroke="black" cx="229" cy="-34" rx="49.29" ry="18"/>
<text text-anchor="middle" x="229" y="-30.3" font-family="Times,serif" font-size="14.00">bedzone</text>
</g>
<!-- playerapartmentzone&#45;&gt;bedzone -->
<g id="edge2" class="edge">
<title>playerapartmentzone&#45;&gt;bedzone</title>
<path fill="none" stroke="black" d="M370.75,-124.44C341.14,-105.76 292.98,-75.37 261.14,-55.28"/>
<polygon fill="black" stroke="black" points="262.95,-52.28 252.63,-49.91 259.21,-58.2 262.95,-52.28"/>
</g>
<!-- playerapartmentzone&#45;&gt;playerdoorzone -->
<g id="edge7" class="edge">
<title>playerapartmentzone&#45;&gt;playerdoorzone</title>
<path fill="none" stroke="black" d="M507.55,-142C543.46,-142 579.36,-142 615.27,-142"/>
<polygon fill="black" stroke="black" points="615.39,-145.5 625.39,-142 615.39,-138.5 615.39,-145.5"/>
</g>
<!-- meditationzone -->
<g id="node6" class="node">
<title>meditationzone</title>
<ellipse fill="none" stroke="black" cx="397" cy="-34" rx="82.59" ry="18"/>
<text text-anchor="middle" x="397" y="-30.3" font-family="Times,serif" font-size="14.00">meditationzone</text>
</g>
<!-- playerapartmentzone&#45;&gt;meditationzone -->
<g id="edge3" class="edge">
<title>playerapartmentzone&#45;&gt;meditationzone</title>
<path fill="none" stroke="black" d="M397,-123.97C397,-107.38 397,-81.88 397,-62.43"/>
<polygon fill="black" stroke="black" points="400.5,-62.34 397,-52.34 393.5,-62.34 400.5,-62.34"/>
</g>
<!-- teazone -->
<g id="node7" class="node">
<title>teazone</title>
<ellipse fill="none" stroke="black" cx="562" cy="-34" rx="46.59" ry="18"/>
<text text-anchor="middle" x="562" y="-30.3" font-family="Times,serif" font-size="14.00">teazone</text>
</g>
<!-- playerapartmentzone&#45;&gt;teazone -->
<g id="edge4" class="edge">
<title>playerapartmentzone&#45;&gt;teazone</title>
<path fill="none" stroke="black" d="M422.78,-124.44C451.82,-105.78 499.03,-75.46 530.3,-55.37"/>
<polygon fill="black" stroke="black" points="532.54,-58.09 539.06,-49.74 528.75,-52.2 532.54,-58.09"/>
</g>
<!-- playerdoorzone&#45;&gt;hallwayzone -->
<g id="edge6" class="edge">
<title>playerdoorzone&#45;&gt;hallwayzone</title>
<path fill="none" stroke="black" d="M675.17,-158.65C663.73,-162.04 650.97,-165.38 639,-168 470.04,-204.95 267.28,-230.76 160.79,-242.26"/>
<polygon fill="black" stroke="black" points="160.36,-238.79 150.79,-243.33 161.1,-245.75 160.36,-238.79"/>
</g>
<!-- playerdoorzone&#45;&gt;playerapartmentzone -->
<g id="edge8" class="edge">
<title>playerdoorzone&#45;&gt;playerapartmentzone</title>
<path fill="none" stroke="black" d="M625.39,-142C589.49,-142 553.58,-142 517.68,-142"/>
<polygon fill="black" stroke="black" points="517.55,-138.5 507.55,-142 517.55,-145.5 517.55,-138.5"/>
</g>
</g>
</svg>
