<?xml version="1.0" encoding="UTF-8" standalone="no"?>
<!DOCTYPE svg PUBLIC "-//W3C//DTD SVG 1.1//EN"
 "http://www.w3.org/Graphics/SVG/1.1/DTD/svg11.dtd">
<!-- Generated by graphviz version 2.43.0 (0)
 -->
<!-- Title: graph_apartment Pages: 1 -->
<svg width="843pt" height="292pt"
 viewBox="0.00 0.00 843.00 292.00" xmlns="http://www.w3.org/2000/svg" xmlns:xlink="http://www.w3.org/1999/xlink">
<g id="graph0" class="graph" transform="scale(1 1) rotate(0) translate(4 288)">
<title>graph_apartment</title>
<polygon fill="white" stroke="transparent" points="-4,4 -4,-288 839,-288 839,4 -4,4"/>
<g id="clust1" class="cluster">
<title>cluster_hallwayzone</title>
<polygon fill="none" stroke="black" points="671,-8 671,-168 827,-168 827,-8 671,-8"/>
</g>
<g id="clust2" class="cluster">
<title>cluster_playerapartmentzone</title>
<polygon fill="none" stroke="black" points="8,-116 8,-276 453,-276 453,-116 8,-116"/>
</g>
<!-- bedzone -->
<g id="node1" class="node">
<title>bedzone</title>
<ellipse fill="none" stroke="black" cx="65" cy="-142" rx="49.29" ry="18"/>
<text text-anchor="middle" x="65" y="-138.3" font-family="Times,serif" font-size="14.00">bedzone</text>
</g>
<!-- meditationzone -->
<g id="node2" class="node">
<title>meditationzone</title>
<ellipse fill="none" stroke="black" cx="233" cy="-142" rx="82.59" ry="18"/>
<text text-anchor="middle" x="233" y="-138.3" font-family="Times,serif" font-size="14.00">meditationzone</text>
</g>
<!-- playerapartmentzone -->
<g id="node3" class="node">
<title>playerapartmentzone</title>
<ellipse fill="none" stroke="black" cx="335" cy="-250" rx="110.48" ry="18"/>
<text text-anchor="middle" x="335" y="-246.3" font-family="Times,serif" font-size="14.00">playerapartmentzone</text>
</g>
<!-- playerapartmentzone&#45;&gt;bedzone -->
<g id="edge3" class="edge">
<title>playerapartmentzone&#45;&gt;bedzone</title>
<path fill="none" stroke="black" d="M294.58,-233.13C244,-213.27 157.81,-179.44 106.66,-159.35"/>
<polygon fill="black" stroke="black" points="107.81,-156.05 97.22,-155.65 105.25,-162.56 107.81,-156.05"/>
</g>
<!-- playerapartmentzone&#45;&gt;meditationzone -->
<g id="edge2" class="edge">
<title>playerapartmentzone&#45;&gt;meditationzone</title>
<path fill="none" stroke="black" d="M318.61,-231.97C301.81,-214.51 275.51,-187.18 256.5,-167.42"/>
<polygon fill="black" stroke="black" points="258.8,-164.77 249.35,-159.99 253.76,-169.62 258.8,-164.77"/>
</g>
<!-- playerdoorzone -->
<g id="node4" class="node">
<title>playerdoorzone</title>
<ellipse fill="none" stroke="black" cx="563" cy="-142" rx="82.59" ry="18"/>
<text text-anchor="middle" x="563" y="-138.3" font-family="Times,serif" font-size="14.00">playerdoorzone</text>
</g>
<!-- playerapartmentzone&#45;&gt;playerdoorzone -->
<g id="edge7" class="edge">
<title>playerapartmentzone&#45;&gt;playerdoorzone</title>
<path fill="none" stroke="black" d="M360.5,-232.44C397.4,-213.26 465.02,-181.75 512.17,-161.71"/>
<polygon fill="black" stroke="black" points="513.75,-164.84 521.61,-157.74 511.03,-158.39 513.75,-164.84"/>
</g>
<!-- hallwayzone -->
<g id="node5" class="node">
<title>hallwayzone</title>
<ellipse fill="none" stroke="black" cx="749" cy="-142" rx="67.69" ry="18"/>
<text text-anchor="middle" x="749" y="-138.3" font-family="Times,serif" font-size="14.00">hallwayzone</text>
</g>
<!-- playerapartmentzone&#45;&gt;hallwayzone -->
<g id="edge10" class="edge">
<title>playerapartmentzone&#45;&gt;hallwayzone</title>
<path fill="none" stroke="black" d="M386,-234.01C448.01,-218.36 554.57,-192.69 646,-168 660.81,-164 676.98,-159.32 692.27,-155.1"/>
<polygon fill="black" stroke="black" points="695.13,-149.13 697.77,-158.78 695.84,-159.31 693.2,-149.66 695.13,-149.13"/>
<polyline fill="none" stroke="black" points="697.41,-153.69 692.59,-155.01 "/>
</g>
<!-- teazone -->
<g id="node6" class="node">
<title>teazone</title>
<ellipse fill="none" stroke="black" cx="398" cy="-142" rx="46.59" ry="18"/>
<text text-anchor="middle" x="398" y="-138.3" font-family="Times,serif" font-size="14.00">teazone</text>
</g>
<!-- playerapartmentzone&#45;&gt;teazone -->
<g id="edge4" class="edge">
<title>playerapartmentzone&#45;&gt;teazone</title>
<path fill="none" stroke="black" d="M345.12,-231.97C355.33,-214.79 371.21,-188.07 382.91,-168.39"/>
<polygon fill="black" stroke="black" points="386.01,-170.02 388.11,-159.64 379.99,-166.45 386.01,-170.02"/>
</g>
<!-- playerdoorzone&#45;&gt;playerapartmentzone -->
<g id="edge8" class="edge">
<title>playerdoorzone&#45;&gt;playerapartmentzone</title>
<path fill="none" stroke="black" d="M538.14,-159.23C501.96,-178.07 435.35,-209.15 388.04,-229.35"/>
<polygon fill="black" stroke="black" points="386.4,-226.24 378.55,-233.36 389.13,-232.69 386.4,-226.24"/>
</g>
<!-- playerdoorzone&#45;&gt;hallwayzone -->
<g id="edge6" class="edge">
<title>playerdoorzone&#45;&gt;hallwayzone</title>
<path fill="none" stroke="black" d="M645.83,-142C654.23,-142 662.64,-142 671.04,-142"/>
<polygon fill="black" stroke="black" points="671.29,-145.5 681.29,-142 671.29,-138.5 671.29,-145.5"/>
</g>
<!-- hallwayzone&#45;&gt;playerapartmentzone -->
<g id="edge9" class="edge">
<title>hallwayzone&#45;&gt;playerapartmentzone</title>
<path fill="none" stroke="black" d="M717.16,-157.92C706,-161.33 693.58,-164.87 682,-168 588.97,-193.12 480.28,-219.26 409.35,-234.83"/>
<polygon fill="black" stroke="black" points="406.35,-240.6 404.22,-230.83 406.17,-230.4 408.31,-240.17 406.35,-240.6"/>
<polyline fill="none" stroke="black" points="404.31,-235.93 409.19,-234.86 "/>
</g>
<!-- hallwayzone&#45;&gt;playerdoorzone -->
<g id="edge5" class="edge">
<title>hallwayzone&#45;&gt;playerdoorzone</title>
<path fill="none" stroke="black" d="M681.29,-142C672.89,-142 664.48,-142 656.08,-142"/>
<polygon fill="black" stroke="black" points="655.83,-138.5 645.83,-142 655.83,-145.5 655.83,-138.5"/>
</g>
<!-- elevatorzone -->
<g id="node7" class="node">
<title>elevatorzone</title>
<ellipse fill="none" stroke="black" cx="749" cy="-34" rx="70.39" ry="18"/>
<text text-anchor="middle" x="749" y="-30.3" font-family="Times,serif" font-size="14.00">elevatorzone</text>
</g>
<!-- hallwayzone&#45;&gt;elevatorzone -->
<g id="edge1" class="edge">
<title>hallwayzone&#45;&gt;elevatorzone</title>
<path fill="none" stroke="black" d="M749,-123.97C749,-107.38 749,-81.88 749,-62.43"/>
<polygon fill="black" stroke="black" points="752.5,-62.34 749,-52.34 745.5,-62.34 752.5,-62.34"/>
</g>
</g>
</svg>
