<?xml version="1.0" encoding="UTF-8" standalone="no"?>
<!DOCTYPE svg PUBLIC "-//W3C//DTD SVG 1.1//EN"
 "http://www.w3.org/Graphics/SVG/1.1/DTD/svg11.dtd">
<!-- Generated by graphviz version 2.43.0 (0)
 -->
<!-- Title: graph_apartment Pages: 1 -->
<svg width="844pt" height="292pt"
 viewBox="0.00 0.00 844.00 292.00" xmlns="http://www.w3.org/2000/svg" xmlns:xlink="http://www.w3.org/1999/xlink">
<g id="graph0" class="graph" transform="scale(1 1) rotate(0) translate(4 288)">
<title>graph_apartment</title>
<polygon fill="white" stroke="transparent" points="-4,4 -4,-288 840,-288 840,4 -4,4"/>
<g id="clust1" class="cluster">
<title>cluster_playerapartmentzone</title>
<polygon fill="none" stroke="black" points="8,-116 8,-276 453,-276 453,-116 8,-116"/>
</g>
<g id="clust2" class="cluster">
<title>cluster_hallwayzone</title>
<polygon fill="none" stroke="black" points="672,-8 672,-168 828,-168 828,-8 672,-8"/>
</g>
<!-- playerapartmentzone -->
<g id="node1" class="node">
<title>playerapartmentzone</title>
<ellipse fill="none" stroke="black" cx="335" cy="-250" rx="110.48" ry="18"/>
<text text-anchor="middle" x="335" y="-246.3" font-family="Times,serif" font-size="14.00">playerapartmentzone</text>
</g>
<!-- playerdoorzone -->
<g id="node3" class="node">
<title>playerdoorzone</title>
<ellipse fill="none" stroke="black" cx="564" cy="-142" rx="82.59" ry="18"/>
<text text-anchor="middle" x="564" y="-138.3" font-family="Times,serif" font-size="14.00">playerdoorzone</text>
</g>
<!-- playerapartmentzone&#45;&gt;playerdoorzone -->
<g id="edge7" class="edge">
<title>playerapartmentzone&#45;&gt;playerdoorzone</title>
<path fill="none" stroke="black" d="M360.66,-232.44C397.74,-213.26 465.66,-181.75 512.99,-161.71"/>
<polygon fill="black" stroke="black" points="514.6,-164.83 522.47,-157.74 511.89,-158.38 514.6,-164.83"/>
</g>
<!-- teazone -->
<g id="node4" class="node">
<title>teazone</title>
<ellipse fill="none" stroke="black" cx="63" cy="-142" rx="46.59" ry="18"/>
<text text-anchor="middle" x="63" y="-138.3" font-family="Times,serif" font-size="14.00">teazone</text>
</g>
<!-- playerapartmentzone&#45;&gt;teazone -->
<g id="edge2" class="edge">
<title>playerapartmentzone&#45;&gt;teazone</title>
<path fill="none" stroke="black" d="M294.34,-233.18C252.41,-216.86 185.13,-190.67 127,-168 119.58,-165.1 111.67,-162.02 104.04,-159.04"/>
<polygon fill="black" stroke="black" points="105.16,-155.72 94.57,-155.34 102.61,-162.24 105.16,-155.72"/>
</g>
<!-- meditationzone -->
<g id="node5" class="node">
<title>meditationzone</title>
<ellipse fill="none" stroke="black" cx="228" cy="-142" rx="82.59" ry="18"/>
<text text-anchor="middle" x="228" y="-138.3" font-family="Times,serif" font-size="14.00">meditationzone</text>
</g>
<!-- playerapartmentzone&#45;&gt;meditationzone -->
<g id="edge1" class="edge">
<title>playerapartmentzone&#45;&gt;meditationzone</title>
<path fill="none" stroke="black" d="M317.81,-231.97C300,-214.33 272.02,-186.61 252.03,-166.81"/>
<polygon fill="black" stroke="black" points="254.36,-164.19 244.8,-159.64 249.44,-169.16 254.36,-164.19"/>
</g>
<!-- hallwayzone -->
<g id="node6" class="node">
<title>hallwayzone</title>
<ellipse fill="none" stroke="black" cx="750" cy="-142" rx="67.69" ry="18"/>
<text text-anchor="middle" x="750" y="-138.3" font-family="Times,serif" font-size="14.00">hallwayzone</text>
</g>
<!-- playerapartmentzone&#45;&gt;hallwayzone -->
<g id="edge10" class="edge">
<title>playerapartmentzone&#45;&gt;hallwayzone</title>
<path fill="none" stroke="black" d="M404.48,-235.94C475.43,-220.54 587.45,-193.76 683,-168 692.86,-165.34 703.33,-162.38 713.11,-159.45"/>
<polygon fill="black" stroke="black" points="715.75,-153.43 718.65,-163 716.73,-163.58 713.84,-154 715.75,-153.43"/>
<polyline fill="none" stroke="black" points="718.16,-157.92 713.37,-159.37 "/>
</g>
<!-- bedzone -->
<g id="node7" class="node">
<title>bedzone</title>
<ellipse fill="none" stroke="black" cx="396" cy="-142" rx="49.29" ry="18"/>
<text text-anchor="middle" x="396" y="-138.3" font-family="Times,serif" font-size="14.00">bedzone</text>
</g>
<!-- playerapartmentzone&#45;&gt;bedzone -->
<g id="edge3" class="edge">
<title>playerapartmentzone&#45;&gt;bedzone</title>
<path fill="none" stroke="black" d="M344.8,-231.97C354.63,-214.89 369.88,-188.38 381.19,-168.74"/>
<polygon fill="black" stroke="black" points="384.27,-170.4 386.22,-159.99 378.2,-166.91 384.27,-170.4"/>
</g>
<!-- elevatorzone -->
<g id="node2" class="node">
<title>elevatorzone</title>
<ellipse fill="none" stroke="black" cx="750" cy="-34" rx="70.39" ry="18"/>
<text text-anchor="middle" x="750" y="-30.3" font-family="Times,serif" font-size="14.00">elevatorzone</text>
</g>
<!-- playerdoorzone&#45;&gt;playerapartmentzone -->
<g id="edge8" class="edge">
<title>playerdoorzone&#45;&gt;playerapartmentzone</title>
<path fill="none" stroke="black" d="M538.99,-159.23C502.55,-178.11 435.45,-209.28 387.93,-229.47"/>
<polygon fill="black" stroke="black" points="386.56,-226.25 378.7,-233.36 389.28,-232.7 386.56,-226.25"/>
</g>
<!-- playerdoorzone&#45;&gt;hallwayzone -->
<g id="edge6" class="edge">
<title>playerdoorzone&#45;&gt;hallwayzone</title>
<path fill="none" stroke="black" d="M646.83,-142C655.23,-142 663.64,-142 672.04,-142"/>
<polygon fill="black" stroke="black" points="672.29,-145.5 682.29,-142 672.29,-138.5 672.29,-145.5"/>
</g>
<!-- hallwayzone&#45;&gt;playerapartmentzone -->
<g id="edge9" class="edge">
<title>hallwayzone&#45;&gt;playerapartmentzone</title>
<path fill="none" stroke="black" d="M698.42,-153.7C681.65,-158.26 663.49,-163.55 647,-168 557.81,-192.05 454.25,-216.99 391.4,-232.73"/>
<polygon fill="black" stroke="black" points="388.38,-238.64 385.95,-228.94 387.89,-228.45 390.32,-238.15 388.38,-238.64"/>
<polyline fill="none" stroke="black" points="386.2,-234.03 391.05,-232.81 "/>
</g>
<!-- hallwayzone&#45;&gt;elevatorzone -->
<g id="edge4" class="edge">
<title>hallwayzone&#45;&gt;elevatorzone</title>
<path fill="none" stroke="black" d="M750,-123.97C750,-107.38 750,-81.88 750,-62.43"/>
<polygon fill="black" stroke="black" points="753.5,-62.34 750,-52.34 746.5,-62.34 753.5,-62.34"/>
</g>
<!-- hallwayzone&#45;&gt;playerdoorzone -->
<g id="edge5" class="edge">
<title>hallwayzone&#45;&gt;playerdoorzone</title>
<path fill="none" stroke="black" d="M682.29,-142C673.89,-142 665.48,-142 657.08,-142"/>
<polygon fill="black" stroke="black" points="656.83,-138.5 646.83,-142 656.83,-145.5 656.83,-138.5"/>
</g>
</g>
</svg>
