<?xml version="1.0" encoding="UTF-8" standalone="no"?>
<!DOCTYPE svg PUBLIC "-//W3C//DTD SVG 1.1//EN"
 "http://www.w3.org/Graphics/SVG/1.1/DTD/svg11.dtd">
<!-- Generated by graphviz version 2.43.0 (0)
 -->
<!-- Title: graph_building1_player_floor Pages: 1 -->
<svg width="818pt" height="292pt"
 viewBox="0.00 0.00 817.54 292.00" xmlns="http://www.w3.org/2000/svg" xmlns:xlink="http://www.w3.org/1999/xlink">
<g id="graph0" class="graph" transform="scale(1 1) rotate(0) translate(4 288)">
<title>graph_building1_player_floor</title>
<polygon fill="white" stroke="transparent" points="-4,4 -4,-288 813.54,-288 813.54,4 -4,4"/>
<g id="clust1" class="cluster">
<title>cluster_hallwayzone</title>
<polygon fill="none" stroke="black" points="8,-116 8,-276 164,-276 164,-116 8,-116"/>
</g>
<g id="clust2" class="cluster">
<title>cluster_playerapartmentzone</title>
<polygon fill="none" stroke="black" points="172,-8 172,-168 617,-168 617,-8 172,-8"/>
</g>
<!-- hallwayzone -->
<g id="node1" class="node">
<title>hallwayzone</title>
<ellipse fill="none" stroke="black" cx="88" cy="-250" rx="67.69" ry="18"/>
<text text-anchor="middle" x="88" y="-246.3" font-family="Times,serif" font-size="14.00">hallwayzone</text>
</g>
<!-- playerapartmentzone -->
<g id="node2" class="node">
<title>playerapartmentzone</title>
<ellipse fill="none" stroke="black" cx="397" cy="-142" rx="110.48" ry="18"/>
<text text-anchor="middle" x="397" y="-138.3" font-family="Times,serif" font-size="14.00">playerapartmentzone</text>
</g>
<!-- hallwayzone&#45;&gt;playerapartmentzone -->
<g id="edge7" class="edge">
<title>hallwayzone&#45;&gt;playerapartmentzone</title>
<path fill="none" stroke="black" d="M132.59,-233.7C189.48,-214.19 287.58,-180.53 346.96,-160.16"/>
<polygon fill="black" stroke="black" points="130.33,-239.76 127.09,-230.31 128.98,-229.66 132.22,-239.12 130.33,-239.76"/>
<polyline fill="none" stroke="black" points="127.76,-235.36 132.49,-233.74 "/>
<polygon fill="black" stroke="black" points="349.31,-154.07 352.56,-163.53 350.66,-164.18 347.42,-154.72 349.31,-154.07"/>
<polyline fill="none" stroke="black" points="351.88,-158.48 347.15,-160.1 "/>
</g>
<!-- elevatorzone -->
<g id="node4" class="node">
<title>elevatorzone</title>
<ellipse fill="none" stroke="black" cx="86" cy="-142" rx="70.39" ry="18"/>
<text text-anchor="middle" x="86" y="-138.3" font-family="Times,serif" font-size="14.00">elevatorzone</text>
</g>
<!-- hallwayzone&#45;&gt;elevatorzone -->
<g id="edge1" class="edge">
<title>hallwayzone&#45;&gt;elevatorzone</title>
<path fill="none" stroke="black" d="M87.68,-231.97C87.37,-215.38 86.88,-189.88 86.52,-170.43"/>
<polygon fill="black" stroke="black" points="90.02,-170.27 86.33,-160.34 83.02,-170.4 90.02,-170.27"/>
</g>
<!-- playerdoorzone -->
<g id="node5" class="node">
<title>playerdoorzone</title>
<ellipse fill="none" stroke="black" cx="727" cy="-34" rx="82.59" ry="18"/>
<text text-anchor="middle" x="727" y="-30.3" font-family="Times,serif" font-size="14.00">playerdoorzone</text>
</g>
<!-- hallwayzone&#45;&gt;playerdoorzone -->
<g id="edge5" class="edge">
<title>hallwayzone&#45;&gt;playerdoorzone</title>
<path fill="none" stroke="black" d="M163.72,-244.6C292.89,-235.96 549.28,-213.51 626,-168 668.3,-142.91 698.89,-92.67 714.72,-61.63"/>
<polygon fill="black" stroke="black" points="163.27,-241.12 153.52,-245.27 163.73,-248.11 163.27,-241.12"/>
<polygon fill="black" stroke="black" points="718.04,-62.8 719.33,-52.28 711.77,-59.7 718.04,-62.8"/>
</g>
<!-- bedzone -->
<g id="node3" class="node">
<title>bedzone</title>
<ellipse fill="none" stroke="black" cx="229" cy="-34" rx="49.29" ry="18"/>
<text text-anchor="middle" x="229" y="-30.3" font-family="Times,serif" font-size="14.00">bedzone</text>
</g>
<!-- playerapartmentzone&#45;&gt;bedzone -->
<g id="edge2" class="edge">
<title>playerapartmentzone&#45;&gt;bedzone</title>
<path fill="none" stroke="black" d="M370.75,-124.44C341.14,-105.76 292.98,-75.37 261.14,-55.28"/>
<polygon fill="black" stroke="black" points="262.95,-52.28 252.63,-49.91 259.21,-58.2 262.95,-52.28"/>
</g>
<!-- playerapartmentzone&#45;&gt;playerdoorzone -->
<g id="edge6" class="edge">
<title>playerapartmentzone&#45;&gt;playerdoorzone</title>
<path fill="none" stroke="black" d="M454.3,-122.59C515.76,-102.85 612.63,-71.74 672.85,-52.39"/>
<polygon fill="black" stroke="black" points="453.08,-119.31 444.63,-125.7 455.22,-125.97 453.08,-119.31"/>
<polygon fill="black" stroke="black" points="674.1,-55.67 682.55,-49.28 671.96,-49 674.1,-55.67"/>
</g>
<!-- meditationzone -->
<g id="node6" class="node">
<title>meditationzone</title>
<ellipse fill="none" stroke="black" cx="397" cy="-34" rx="82.59" ry="18"/>
<text text-anchor="middle" x="397" y="-30.3" font-family="Times,serif" font-size="14.00">meditationzone</text>
</g>
<!-- playerapartmentzone&#45;&gt;meditationzone -->
<g id="edge3" class="edge">
<title>playerapartmentzone&#45;&gt;meditationzone</title>
<path fill="none" stroke="black" d="M397,-123.97C397,-107.38 397,-81.88 397,-62.43"/>
<polygon fill="black" stroke="black" points="400.5,-62.34 397,-52.34 393.5,-62.34 400.5,-62.34"/>
</g>
<!-- teazone -->
<g id="node7" class="node">
<title>teazone</title>
<ellipse fill="none" stroke="black" cx="562" cy="-34" rx="46.59" ry="18"/>
<text text-anchor="middle" x="562" y="-30.3" font-family="Times,serif" font-size="14.00">teazone</text>
</g>
<!-- playerapartmentzone&#45;&gt;teazone -->
<g id="edge4" class="edge">
<title>playerapartmentzone&#45;&gt;teazone</title>
<path fill="none" stroke="black" d="M422.78,-124.44C451.82,-105.78 499.03,-75.46 530.3,-55.37"/>
<polygon fill="black" stroke="black" points="532.54,-58.09 539.06,-49.74 528.75,-52.2 532.54,-58.09"/>
</g>
</g>
</svg>
