<?xml version="1.0" encoding="UTF-8" standalone="no"?>
<!DOCTYPE svg PUBLIC "-//W3C//DTD SVG 1.1//EN"
 "http://www.w3.org/Graphics/SVG/1.1/DTD/svg11.dtd">
<!-- Generated by graphviz version 2.43.0 (0)
 -->
<!-- Title: graph_building1_player_floor Pages: 1 -->
<svg width="869pt" height="600pt"
 viewBox="0.00 0.00 868.83 600.00" xmlns="http://www.w3.org/2000/svg" xmlns:xlink="http://www.w3.org/1999/xlink">
<g id="graph0" class="graph" transform="scale(1 1) rotate(0) translate(4 596)">
<title>graph_building1_player_floor</title>
<polygon fill="white" stroke="transparent" points="-4,4 -4,-596 864.83,-596 864.83,4 -4,4"/>
<g id="clust1" class="cluster">
<title>cluster_bottomleftapartment</title>
<polygon fill="none" stroke="black" points="131.34,-332 131.34,-492 495.34,-492 495.34,-332 131.34,-332"/>
</g>
<g id="clust2" class="cluster">
<title>cluster_hallway</title>
<polygon fill="none" stroke="black" points="38.34,-116 38.34,-276 152.34,-276 152.34,-116 38.34,-116"/>
</g>
<g id="clust3" class="cluster">
<title>cluster_playerapartment</title>
<polygon fill="none" stroke="black" points="160.34,-8 160.34,-168 480.34,-168 480.34,-8 160.34,-8"/>
</g>
<!-- bed -->
<g id="node1" class="node">
<title>bed</title>
<ellipse fill="none" stroke="black" cx="196.34" cy="-34" rx="27.9" ry="18"/>
<text text-anchor="middle" x="196.34" y="-30.3" font-family="Times,serif" font-size="14.00">bed</text>
</g>
<!-- bottomleftapartmentbathroomdoor -->
<g id="node2" class="node">
<title>bottomleftapartmentbathroomdoor</title>
<ellipse fill="none" stroke="black" cx="313.34" cy="-358" rx="174.37" ry="18"/>
<text text-anchor="middle" x="313.34" y="-354.3" font-family="Times,serif" font-size="14.00">bottomleftapartmentbathroomdoor</text>
</g>
<!-- bottomleftapartmentdoor -->
<g id="node3" class="node">
<title>bottomleftapartmentdoor</title>
<ellipse fill="none" stroke="black" cx="129.34" cy="-574" rx="129.18" ry="18"/>
<text text-anchor="middle" x="129.34" y="-570.3" font-family="Times,serif" font-size="14.00">bottomleftapartmentdoor</text>
</g>
<!-- bottomleftapartment -->
<g id="node4" class="node">
<title>bottomleftapartment</title>
<ellipse fill="none" stroke="black" cx="280.34" cy="-466" rx="108.58" ry="18"/>
<text text-anchor="middle" x="280.34" y="-462.3" font-family="Times,serif" font-size="14.00">bottomleftapartment</text>
</g>
<!-- bottomleftapartmentdoor&#45;&gt;bottomleftapartment -->
<g id="edge6" class="edge">
<title>bottomleftapartmentdoor&#45;&gt;bottomleftapartment</title>
<path fill="none" stroke="black" d="M161.67,-550.3C187.25,-532.35 222.78,-507.4 248.29,-489.5"/>
<polygon fill="black" stroke="black" points="159.44,-547.59 153.26,-556.2 163.46,-553.32 159.44,-547.59"/>
<polygon fill="black" stroke="black" points="250.35,-492.33 256.52,-483.72 246.33,-486.6 250.35,-492.33"/>
</g>
<!-- hallway -->
<g id="node8" class="node">
<title>hallway</title>
<ellipse fill="none" stroke="black" cx="98.34" cy="-250" rx="46.29" ry="18"/>
<text text-anchor="middle" x="98.34" y="-246.3" font-family="Times,serif" font-size="14.00">hallway</text>
</g>
<!-- bottomleftapartmentdoor&#45;&gt;hallway -->
<g id="edge7" class="edge">
<title>bottomleftapartmentdoor&#45;&gt;hallway</title>
<path fill="none" stroke="black" d="M122.81,-546.02C114.03,-508.26 98.9,-437.4 93.34,-376 91.57,-356.52 92.74,-351.55 93.34,-332 93.89,-314.04 95.14,-293.86 96.24,-278.14"/>
<polygon fill="black" stroke="black" points="119.4,-546.82 125.1,-555.75 126.21,-545.22 119.4,-546.82"/>
<polygon fill="black" stroke="black" points="99.74,-278.28 96.98,-268.05 92.76,-277.77 99.74,-278.28"/>
</g>
<!-- bottomleftapartment&#45;&gt;bottomleftapartmentbathroomdoor -->
<g id="edge1" class="edge">
<title>bottomleftapartment&#45;&gt;bottomleftapartmentbathroomdoor</title>
<path fill="none" stroke="black" d="M285.64,-447.97C290.85,-431.22 298.89,-405.41 304.97,-385.89"/>
<polygon fill="black" stroke="black" points="308.31,-386.93 307.94,-376.34 301.63,-384.85 308.31,-386.93"/>
</g>
<!-- bottomrightapartment -->
<g id="node6" class="node">
<title>bottomrightapartment</title>
<ellipse fill="none" stroke="black" cx="639.34" cy="-358" rx="115.88" ry="18"/>
<text text-anchor="middle" x="639.34" y="-354.3" font-family="Times,serif" font-size="14.00">bottomrightapartment</text>
</g>
<!-- bottomleftapartment&#45;&gt;bottomrightapartment -->
<g id="edge13" class="edge">
<title>bottomleftapartment&#45;&gt;bottomrightapartment</title>
<path fill="none" stroke="black" d="M335.89,-448.6C403.01,-428.78 515.33,-395.62 582.87,-375.67"/>
<polygon fill="black" stroke="black" points="333.39,-454.55 330.56,-444.96 332.47,-444.39 335.31,-453.98 333.39,-454.55"/>
<polyline fill="none" stroke="black" points="331.01,-450.04 335.81,-448.62 "/>
<polygon fill="black" stroke="black" points="585.68,-369.63 588.51,-379.22 586.59,-379.79 583.76,-370.2 585.68,-369.63"/>
<polyline fill="none" stroke="black" points="588.05,-374.14 583.26,-375.56 "/>
</g>
<!-- bottomleftapartment&#45;&gt;hallway -->
<g id="edge14" class="edge">
<title>bottomleftapartment&#45;&gt;hallway</title>
<path fill="none" stroke="black" d="M225.82,-448.13C190.54,-434.36 146.63,-411.33 121.34,-376 99.43,-345.38 96.51,-300.05 96.99,-273.22"/>
<polygon fill="black" stroke="black" points="231.37,-444.9 227.79,-454.24 225.93,-453.53 229.5,-444.19 231.37,-444.9"/>
<polyline fill="none" stroke="black" points="230.52,-449.93 225.85,-448.14 "/>
<polygon fill="black" stroke="black" points="92.11,-268.97 102.1,-269.25 102.05,-271.24 92.05,-270.97 92.11,-268.97"/>
<polyline fill="none" stroke="black" points="97.13,-268.11 97,-273.11 "/>
</g>
<!-- bottomrightapartmentdoor -->
<g id="node5" class="node">
<title>bottomrightapartmentdoor</title>
<ellipse fill="none" stroke="black" cx="724.34" cy="-466" rx="136.48" ry="18"/>
<text text-anchor="middle" x="724.34" y="-462.3" font-family="Times,serif" font-size="14.00">bottomrightapartmentdoor</text>
</g>
<!-- bottomrightapartmentdoor&#45;&gt;bottomrightapartment -->
<g id="edge8" class="edge">
<title>bottomrightapartmentdoor&#45;&gt;bottomrightapartment</title>
<path fill="none" stroke="black" d="M704.3,-440.01C690.7,-423.05 672.8,-400.73 659.24,-383.81"/>
<polygon fill="black" stroke="black" points="701.7,-442.36 710.68,-447.97 707.16,-437.98 701.7,-442.36"/>
<polygon fill="black" stroke="black" points="661.95,-381.6 652.96,-375.99 656.49,-385.98 661.95,-381.6"/>
</g>
<!-- bottomrightapartmentdoor&#45;&gt;hallway -->
<g id="edge9" class="edge">
<title>bottomrightapartmentdoor&#45;&gt;hallway</title>
<path fill="none" stroke="black" d="M746.99,-440.19C770.71,-411.16 800.95,-363.13 773.34,-332 732.42,-285.88 308.62,-261.09 154.21,-253.53"/>
<polygon fill="black" stroke="black" points="744.3,-437.94 740.53,-447.84 749.65,-442.46 744.3,-437.94"/>
<polygon fill="black" stroke="black" points="154.16,-250.02 144.01,-253.04 153.83,-257.01 154.16,-250.02"/>
</g>
<!-- bottomrightapartment&#45;&gt;hallway -->
<g id="edge15" class="edge">
<title>bottomrightapartment&#45;&gt;hallway</title>
<path fill="none" stroke="black" d="M565.45,-342.52C451.7,-320.24 237.09,-278.19 143.69,-259.88"/>
<polygon fill="black" stroke="black" points="570.53,-338.42 568.6,-348.24 566.64,-347.85 568.56,-338.04 570.53,-338.42"/>
<polyline fill="none" stroke="black" points="570.55,-343.52 565.64,-342.56 "/>
<polygon fill="black" stroke="black" points="138.54,-263.97 140.46,-254.16 142.42,-254.54 140.5,-264.36 138.54,-263.97"/>
<polyline fill="none" stroke="black" points="138.52,-258.87 143.43,-259.83 "/>
</g>
<!-- elevator -->
<g id="node7" class="node">
<title>elevator</title>
<ellipse fill="none" stroke="black" cx="95.34" cy="-142" rx="48.99" ry="18"/>
<text text-anchor="middle" x="95.34" y="-138.3" font-family="Times,serif" font-size="14.00">elevator</text>
</g>
<!-- hallway&#45;&gt;elevator -->
<g id="edge2" class="edge">
<title>hallway&#45;&gt;elevator</title>
<path fill="none" stroke="black" d="M97.86,-231.97C97.39,-215.38 96.67,-189.88 96.11,-170.43"/>
<polygon fill="black" stroke="black" points="99.61,-170.24 95.83,-160.34 92.61,-170.44 99.61,-170.24"/>
</g>
<!-- playerapartment -->
<g id="node10" class="node">
<title>playerapartment</title>
<ellipse fill="none" stroke="black" cx="321.34" cy="-142" rx="89.08" ry="18"/>
<text text-anchor="middle" x="321.34" y="-138.3" font-family="Times,serif" font-size="14.00">playerapartment</text>
</g>
<!-- hallway&#45;&gt;playerapartment -->
<g id="edge10" class="edge">
<title>hallway&#45;&gt;playerapartment</title>
<path fill="none" stroke="black" d="M135.78,-231.2C175.36,-212.39 237.66,-182.78 279,-163.13"/>
<polygon fill="black" stroke="black" points="134.11,-228.12 126.58,-235.58 137.12,-234.44 134.11,-228.12"/>
<polygon fill="black" stroke="black" points="280.73,-166.18 288.25,-158.73 277.72,-159.86 280.73,-166.18"/>
</g>
<!-- playerdoor -->
<g id="node11" class="node">
<title>playerdoor</title>
<ellipse fill="none" stroke="black" cx="569.34" cy="-34" rx="61.19" ry="18"/>
<text text-anchor="middle" x="569.34" y="-30.3" font-family="Times,serif" font-size="14.00">playerdoor</text>
</g>
<!-- hallway&#45;&gt;playerdoor -->
<g id="edge11" class="edge">
<title>hallway&#45;&gt;playerdoor</title>
<path fill="none" stroke="black" d="M152.37,-243.2C246.49,-232.23 435.65,-206.07 489.34,-168 526.47,-141.68 549.43,-92.19 560.75,-61.57"/>
<polygon fill="black" stroke="black" points="151.73,-239.75 142.19,-244.37 152.53,-246.7 151.73,-239.75"/>
<polygon fill="black" stroke="black" points="564.11,-62.56 564.15,-51.96 557.51,-60.22 564.11,-62.56"/>
</g>
<!-- meditation -->
<g id="node9" class="node">
<title>meditation</title>
<ellipse fill="none" stroke="black" cx="321.34" cy="-34" rx="61.19" ry="18"/>
<text text-anchor="middle" x="321.34" y="-30.3" font-family="Times,serif" font-size="14.00">meditation</text>
</g>
<!-- playerapartment&#45;&gt;bed -->
<g id="edge3" class="edge">
<title>playerapartment&#45;&gt;bed</title>
<path fill="none" stroke="black" d="M301.81,-124.44C279.82,-105.79 244.07,-75.48 220.39,-55.39"/>
<polygon fill="black" stroke="black" points="222.44,-52.55 212.55,-48.75 217.92,-57.89 222.44,-52.55"/>
</g>
<!-- playerapartment&#45;&gt;meditation -->
<g id="edge4" class="edge">
<title>playerapartment&#45;&gt;meditation</title>
<path fill="none" stroke="black" d="M321.34,-123.97C321.34,-107.38 321.34,-81.88 321.34,-62.43"/>
<polygon fill="black" stroke="black" points="324.84,-62.34 321.34,-52.34 317.84,-62.34 324.84,-62.34"/>
</g>
<!-- playerapartment&#45;&gt;playerdoor -->
<g id="edge12" class="edge">
<title>playerapartment&#45;&gt;playerdoor</title>
<path fill="none" stroke="black" d="M367.07,-121.45C412.7,-101.95 482.23,-72.23 526.72,-53.22"/>
<polygon fill="black" stroke="black" points="365.49,-118.32 357.67,-125.47 368.24,-124.76 365.49,-118.32"/>
<polygon fill="black" stroke="black" points="528.27,-56.36 536.09,-49.21 525.52,-49.92 528.27,-56.36"/>
</g>
<!-- tea -->
<g id="node12" class="node">
<title>tea</title>
<ellipse fill="none" stroke="black" cx="445.34" cy="-34" rx="27" ry="18"/>
<text text-anchor="middle" x="445.34" y="-30.3" font-family="Times,serif" font-size="14.00">tea</text>
</g>
<!-- playerapartment&#45;&gt;tea -->
<g id="edge5" class="edge">
<title>playerapartment&#45;&gt;tea</title>
<path fill="none" stroke="black" d="M340.99,-124.2C362.86,-105.51 398.19,-75.3 421.59,-55.3"/>
<polygon fill="black" stroke="black" points="424,-57.84 429.33,-48.68 419.46,-52.52 424,-57.84"/>
</g>
</g>
</svg>
