<?xml version="1.0" encoding="UTF-8" standalone="no"?>
<!DOCTYPE svg PUBLIC "-//W3C//DTD SVG 1.1//EN"
 "http://www.w3.org/Graphics/SVG/1.1/DTD/svg11.dtd">
<!-- Generated by graphviz version 2.43.0 (0)
 -->
<!-- Title: graph_building1_player_floor Pages: 1 -->
<svg width="1934pt" height="292pt"
 viewBox="0.00 0.00 1933.94 292.00" xmlns="http://www.w3.org/2000/svg" xmlns:xlink="http://www.w3.org/1999/xlink">
<g id="graph0" class="graph" transform="scale(1 1) rotate(0) translate(4 288)">
<title>graph_building1_player_floor</title>
<polygon fill="white" stroke="transparent" points="-4,4 -4,-288 1929.94,-288 1929.94,4 -4,4"/>
<g id="clust1" class="cluster">
<title>cluster_hallwayzone</title>
<polygon fill="none" stroke="black" points="8,-116 8,-276 164,-276 164,-116 8,-116"/>
</g>
<g id="clust2" class="cluster">
<title>cluster_playerapartmentzone</title>
<polygon fill="none" stroke="black" points="172,-8 172,-168 617,-168 617,-8 172,-8"/>
</g>
<g id="clust3" class="cluster">
<title>cluster_bottomleftapartmentzone</title>
<polygon fill="none" stroke="black" points="837,-8 837,-168 1245,-168 1245,-8 837,-8"/>
</g>
<!-- hallwayzone -->
<g id="node1" class="node">
<title>hallwayzone</title>
<ellipse fill="none" stroke="black" cx="88" cy="-250" rx="67.69" ry="18"/>
<text text-anchor="middle" x="88" y="-246.3" font-family="Times,serif" font-size="14.00">hallwayzone</text>
</g>
<!-- playerapartmentzone -->
<g id="node2" class="node">
<title>playerapartmentzone</title>
<ellipse fill="none" stroke="black" cx="397" cy="-142" rx="110.48" ry="18"/>
<text text-anchor="middle" x="397" y="-138.3" font-family="Times,serif" font-size="14.00">playerapartmentzone</text>
</g>
<!-- hallwayzone&#45;&gt;playerapartmentzone -->
<g id="edge6" class="edge">
<title>hallwayzone&#45;&gt;playerapartmentzone</title>
<path fill="none" stroke="black" d="M137.26,-232.1C193.14,-212.93 284.03,-181.75 342.14,-161.82"/>
<polygon fill="black" stroke="black" points="136.09,-228.8 127.76,-235.36 138.36,-235.43 136.09,-228.8"/>
<polygon fill="black" stroke="black" points="343.56,-165.03 351.88,-158.48 341.28,-158.41 343.56,-165.03"/>
</g>
<!-- elevatorzone -->
<g id="node4" class="node">
<title>elevatorzone</title>
<ellipse fill="none" stroke="black" cx="86" cy="-142" rx="70.39" ry="18"/>
<text text-anchor="middle" x="86" y="-138.3" font-family="Times,serif" font-size="14.00">elevatorzone</text>
</g>
<!-- hallwayzone&#45;&gt;elevatorzone -->
<g id="edge1" class="edge">
<title>hallwayzone&#45;&gt;elevatorzone</title>
<path fill="none" stroke="black" d="M87.68,-231.97C87.37,-215.38 86.88,-189.88 86.52,-170.43"/>
<polygon fill="black" stroke="black" points="90.02,-170.27 86.33,-160.34 83.02,-170.4 90.02,-170.27"/>
</g>
<!-- playerdoorzone -->
<g id="node5" class="node">
<title>playerdoorzone</title>
<ellipse fill="none" stroke="black" cx="727" cy="-34" rx="82.59" ry="18"/>
<text text-anchor="middle" x="727" y="-30.3" font-family="Times,serif" font-size="14.00">playerdoorzone</text>
</g>
<!-- hallwayzone&#45;&gt;playerdoorzone -->
<g id="edge7" class="edge">
<title>hallwayzone&#45;&gt;playerdoorzone</title>
<path fill="none" stroke="black" d="M163.72,-244.6C292.89,-235.96 549.28,-213.51 626,-168 668.3,-142.91 698.89,-92.67 714.72,-61.63"/>
<polygon fill="black" stroke="black" points="163.27,-241.12 153.52,-245.27 163.73,-248.11 163.27,-241.12"/>
<polygon fill="black" stroke="black" points="718.04,-62.8 719.33,-52.28 711.77,-59.7 718.04,-62.8"/>
</g>
<!-- bottomleftapartmentzone -->
<g id="node8" class="node">
<title>bottomleftapartmentzone</title>
<ellipse fill="none" stroke="black" cx="1041" cy="-142" rx="129.98" ry="18"/>
<text text-anchor="middle" x="1041" y="-138.3" font-family="Times,serif" font-size="14.00">bottomleftapartmentzone</text>
</g>
<!-- hallwayzone&#45;&gt;bottomleftapartmentzone -->
<g id="edge13" class="edge">
<title>hallwayzone&#45;&gt;bottomleftapartmentzone</title>
<path fill="none" stroke="black" d="M154.35,-241.62C317.91,-223.43 741.41,-176.32 937.97,-154.46"/>
<polygon fill="black" stroke="black" points="150.61,-247.07 149.51,-237.13 151.49,-236.91 152.6,-246.85 150.61,-247.07"/>
<polyline fill="none" stroke="black" points="149.06,-242.21 154.03,-241.66 "/>
<polygon fill="black" stroke="black" points="941.6,-149.03 942.7,-158.96 940.71,-159.19 939.61,-149.25 941.6,-149.03"/>
<polyline fill="none" stroke="black" points="943.14,-153.88 938.17,-154.44 "/>
</g>
<!-- bottomleftapartmentdoorzone -->
<g id="node9" class="node">
<title>bottomleftapartmentdoorzone</title>
<ellipse fill="none" stroke="black" cx="1423" cy="-34" rx="150.57" ry="18"/>
<text text-anchor="middle" x="1423" y="-30.3" font-family="Times,serif" font-size="14.00">bottomleftapartmentdoorzone</text>
</g>
<!-- hallwayzone&#45;&gt;bottomleftapartmentdoorzone -->
<g id="edge8" class="edge">
<title>hallwayzone&#45;&gt;bottomleftapartmentdoorzone</title>
<path fill="none" stroke="black" d="M166.08,-249.51C393.95,-250.09 1054.6,-244.89 1254,-168 1314.7,-144.59 1371.06,-91.44 1400.87,-59.87"/>
<polygon fill="black" stroke="black" points="165.89,-246.01 155.88,-249.48 165.87,-253.01 165.89,-246.01"/>
<polygon fill="black" stroke="black" points="1403.62,-62.05 1407.86,-52.34 1398.49,-57.29 1403.62,-62.05"/>
</g>
<!-- bottomrightapartmentzone -->
<g id="node11" class="node">
<title>bottomrightapartmentzone</title>
<ellipse fill="none" stroke="black" cx="1548" cy="-142" rx="137.28" ry="18"/>
<text text-anchor="middle" x="1548" y="-138.3" font-family="Times,serif" font-size="14.00">bottomrightapartmentzone</text>
</g>
<!-- hallwayzone&#45;&gt;bottomrightapartmentzone -->
<g id="edge14" class="edge">
<title>hallwayzone&#45;&gt;bottomrightapartmentzone</title>
<path fill="none" stroke="black" d="M159.52,-246.08C352.76,-237.84 901.43,-212.07 1356,-168 1388.08,-164.89 1423.06,-160.6 1454.26,-156.46"/>
<polygon fill="black" stroke="black" points="155.67,-251.25 155.25,-241.26 157.25,-241.17 157.67,-251.16 155.67,-251.25"/>
<polyline fill="none" stroke="black" points="154.46,-246.3 159.46,-246.08 "/>
<polygon fill="black" stroke="black" points="1457.59,-150.97 1458.91,-160.88 1456.93,-161.15 1455.6,-151.23 1457.59,-150.97"/>
<polyline fill="none" stroke="black" points="1459.24,-155.79 1454.28,-156.46 "/>
</g>
<!-- bottomrightapartmentdoorzone -->
<g id="node12" class="node">
<title>bottomrightapartmentdoorzone</title>
<ellipse fill="none" stroke="black" cx="1768" cy="-34" rx="157.87" ry="18"/>
<text text-anchor="middle" x="1768" y="-30.3" font-family="Times,serif" font-size="14.00">bottomrightapartmentdoorzone</text>
</g>
<!-- hallwayzone&#45;&gt;bottomrightapartmentdoorzone -->
<g id="edge9" class="edge">
<title>hallwayzone&#45;&gt;bottomrightapartmentdoorzone</title>
<path fill="none" stroke="black" d="M165.67,-247.29C479.23,-240.11 1638.2,-210.75 1703,-168 1739.43,-143.97 1756.13,-93.3 1763.24,-61.91"/>
<polygon fill="black" stroke="black" points="165.23,-243.8 155.31,-247.53 165.39,-250.8 165.23,-243.8"/>
<polygon fill="black" stroke="black" points="1766.68,-62.57 1765.31,-52.07 1759.83,-61.14 1766.68,-62.57"/>
</g>
<!-- bedzone -->
<g id="node3" class="node">
<title>bedzone</title>
<ellipse fill="none" stroke="black" cx="229" cy="-34" rx="49.29" ry="18"/>
<text text-anchor="middle" x="229" y="-30.3" font-family="Times,serif" font-size="14.00">bedzone</text>
</g>
<!-- playerapartmentzone&#45;&gt;bedzone -->
<g id="edge2" class="edge">
<title>playerapartmentzone&#45;&gt;bedzone</title>
<path fill="none" stroke="black" d="M370.75,-124.44C341.14,-105.76 292.98,-75.37 261.14,-55.28"/>
<polygon fill="black" stroke="black" points="262.95,-52.28 252.63,-49.91 259.21,-58.2 262.95,-52.28"/>
</g>
<!-- playerapartmentzone&#45;&gt;playerdoorzone -->
<g id="edge10" class="edge">
<title>playerapartmentzone&#45;&gt;playerdoorzone</title>
<path fill="none" stroke="black" d="M454.3,-122.59C515.76,-102.85 612.63,-71.74 672.85,-52.39"/>
<polygon fill="black" stroke="black" points="453.08,-119.31 444.63,-125.7 455.22,-125.97 453.08,-119.31"/>
<polygon fill="black" stroke="black" points="674.1,-55.67 682.55,-49.28 671.96,-49 674.1,-55.67"/>
</g>
<!-- meditationzone -->
<g id="node6" class="node">
<title>meditationzone</title>
<ellipse fill="none" stroke="black" cx="397" cy="-34" rx="82.59" ry="18"/>
<text text-anchor="middle" x="397" y="-30.3" font-family="Times,serif" font-size="14.00">meditationzone</text>
</g>
<!-- playerapartmentzone&#45;&gt;meditationzone -->
<g id="edge3" class="edge">
<title>playerapartmentzone&#45;&gt;meditationzone</title>
<path fill="none" stroke="black" d="M397,-123.97C397,-107.38 397,-81.88 397,-62.43"/>
<polygon fill="black" stroke="black" points="400.5,-62.34 397,-52.34 393.5,-62.34 400.5,-62.34"/>
</g>
<!-- teazone -->
<g id="node7" class="node">
<title>teazone</title>
<ellipse fill="none" stroke="black" cx="562" cy="-34" rx="46.59" ry="18"/>
<text text-anchor="middle" x="562" y="-30.3" font-family="Times,serif" font-size="14.00">teazone</text>
</g>
<!-- playerapartmentzone&#45;&gt;teazone -->
<g id="edge4" class="edge">
<title>playerapartmentzone&#45;&gt;teazone</title>
<path fill="none" stroke="black" d="M422.78,-124.44C451.82,-105.78 499.03,-75.46 530.3,-55.37"/>
<polygon fill="black" stroke="black" points="532.54,-58.09 539.06,-49.74 528.75,-52.2 532.54,-58.09"/>
</g>
<!-- bottomleftapartmentzone&#45;&gt;bottomleftapartmentdoorzone -->
<g id="edge11" class="edge">
<title>bottomleftapartmentzone&#45;&gt;bottomleftapartmentdoorzone</title>
<path fill="none" stroke="black" d="M1106.58,-122.8C1176.37,-103.44 1286.21,-72.96 1356.39,-53.48"/>
<polygon fill="black" stroke="black" points="1105.25,-119.54 1096.55,-125.59 1107.12,-126.29 1105.25,-119.54"/>
<polygon fill="black" stroke="black" points="1357.75,-56.74 1366.45,-50.69 1355.88,-49.99 1357.75,-56.74"/>
</g>
<!-- bottomleftapartmentbathroomdoorzone -->
<g id="node10" class="node">
<title>bottomleftapartmentbathroomdoorzone</title>
<ellipse fill="none" stroke="black" cx="1041" cy="-34" rx="195.77" ry="18"/>
<text text-anchor="middle" x="1041" y="-30.3" font-family="Times,serif" font-size="14.00">bottomleftapartmentbathroomdoorzone</text>
</g>
<!-- bottomleftapartmentzone&#45;&gt;bottomleftapartmentbathroomdoorzone -->
<g id="edge5" class="edge">
<title>bottomleftapartmentzone&#45;&gt;bottomleftapartmentbathroomdoorzone</title>
<path fill="none" stroke="black" d="M1041,-123.97C1041,-107.38 1041,-81.88 1041,-62.43"/>
<polygon fill="black" stroke="black" points="1044.5,-62.34 1041,-52.34 1037.5,-62.34 1044.5,-62.34"/>
</g>
<!-- bottomrightapartmentzone&#45;&gt;bottomrightapartmentdoorzone -->
<g id="edge12" class="edge">
<title>bottomrightapartmentzone&#45;&gt;bottomrightapartmentdoorzone</title>
<path fill="none" stroke="black" d="M1591.46,-120.06C1629.85,-101.56 1685.57,-74.71 1724.1,-56.15"/>
<polygon fill="black" stroke="black" points="1589.86,-116.94 1582.38,-124.44 1592.9,-123.25 1589.86,-116.94"/>
<polygon fill="black" stroke="black" points="1726.01,-59.11 1733.5,-51.62 1722.98,-52.81 1726.01,-59.11"/>
</g>
</g>
</svg>
