<?xml version="1.0" encoding="UTF-8" standalone="no"?>
<!DOCTYPE svg PUBLIC "-//W3C//DTD SVG 1.1//EN"
 "http://www.w3.org/Graphics/SVG/1.1/DTD/svg11.dtd">
<!-- Generated by graphviz version 2.43.0 (0)
 -->
<!-- Title: graph_building1_player_floor Pages: 1 -->
<svg width="1011pt" height="508pt"
 viewBox="0.00 0.00 1011.09 508.00" xmlns="http://www.w3.org/2000/svg" xmlns:xlink="http://www.w3.org/1999/xlink">
<g id="graph0" class="graph" transform="scale(1 1) rotate(0) translate(4 504)">
<title>graph_building1_player_floor</title>
<polygon fill="white" stroke="transparent" points="-4,4 -4,-504 1007.09,-504 1007.09,4 -4,4"/>
<g id="clust1" class="cluster">
<title>cluster_apartment2</title>
<polygon fill="none" stroke="black" points="8,-332 8,-492 286,-492 286,-332 8,-332"/>
</g>
<g id="clust2" class="cluster">
<title>cluster_hallway</title>
<polygon fill="none" stroke="black" points="411,-116 411,-276 525,-276 525,-116 411,-116"/>
</g>
<g id="clust3" class="cluster">
<title>cluster_playerapartment</title>
<polygon fill="none" stroke="black" points="533,-8 533,-168 853,-168 853,-8 533,-8"/>
</g>
<!-- apartment2 -->
<g id="node1" class="node">
<title>apartment2</title>
<ellipse fill="none" stroke="black" cx="212" cy="-466" rx="65.79" ry="18"/>
<text text-anchor="middle" x="212" y="-462.3" font-family="Times,serif" font-size="14.00">apartment2</text>
</g>
<!-- apartment2bathroomdoor -->
<g id="node2" class="node">
<title>apartment2bathroomdoor</title>
<ellipse fill="none" stroke="black" cx="147" cy="-358" rx="131.08" ry="18"/>
<text text-anchor="middle" x="147" y="-354.3" font-family="Times,serif" font-size="14.00">apartment2bathroomdoor</text>
</g>
<!-- apartment2&#45;&gt;apartment2bathroomdoor -->
<g id="edge1" class="edge">
<title>apartment2&#45;&gt;apartment2bathroomdoor</title>
<path fill="none" stroke="black" d="M201.56,-447.97C191.09,-430.89 174.83,-404.38 162.78,-384.74"/>
<polygon fill="black" stroke="black" points="165.63,-382.68 157.42,-375.99 159.66,-386.34 165.63,-382.68"/>
</g>
<!-- apartment2door -->
<g id="node3" class="node">
<title>apartment2door</title>
<ellipse fill="none" stroke="black" cx="401" cy="-358" rx="86.38" ry="18"/>
<text text-anchor="middle" x="401" y="-354.3" font-family="Times,serif" font-size="14.00">apartment2door</text>
</g>
<!-- apartment2&#45;&gt;apartment2door -->
<g id="edge6" class="edge">
<title>apartment2&#45;&gt;apartment2door</title>
<path fill="none" stroke="black" d="M248.23,-444.68C281.23,-426.17 329.77,-398.95 363.23,-380.18"/>
<polygon fill="black" stroke="black" points="246.49,-441.64 239.48,-449.59 249.92,-447.75 246.49,-441.64"/>
<polygon fill="black" stroke="black" points="365.24,-383.07 372.25,-375.13 361.81,-376.97 365.24,-383.07"/>
</g>
<!-- hallway -->
<g id="node6" class="node">
<title>hallway</title>
<ellipse fill="none" stroke="black" cx="471" cy="-250" rx="46.29" ry="18"/>
<text text-anchor="middle" x="471" y="-246.3" font-family="Times,serif" font-size="14.00">hallway</text>
</g>
<!-- apartment2&#45;&gt;hallway -->
<g id="edge11" class="edge">
<title>apartment2&#45;&gt;hallway</title>
<path fill="none" stroke="black" d="M272.26,-455.28C349.62,-441.44 477.19,-413.51 505,-376 528.17,-344.75 504.5,-298.65 486.71,-272.05"/>
<polygon fill="black" stroke="black" points="269.1,-460.92 267.35,-451.08 269.32,-450.73 271.07,-460.57 269.1,-460.92"/>
<polyline fill="none" stroke="black" points="267.24,-456.18 272.17,-455.3 "/>
<polygon fill="black" stroke="black" points="480.13,-271.28 488.39,-265.64 489.52,-267.29 481.26,-272.93 480.13,-271.28"/>
<polyline fill="none" stroke="black" points="483.7,-267.63 486.52,-271.76 "/>
</g>
<!-- apartment2door&#45;&gt;hallway -->
<g id="edge7" class="edge">
<title>apartment2door&#45;&gt;hallway</title>
<path fill="none" stroke="black" d="M417.89,-331.42C428.93,-314.71 443.28,-292.97 454.29,-276.31"/>
<polygon fill="black" stroke="black" points="414.84,-329.7 412.25,-339.97 420.68,-333.55 414.84,-329.7"/>
<polygon fill="black" stroke="black" points="457.42,-277.91 460.01,-267.64 451.58,-274.05 457.42,-277.91"/>
</g>
<!-- bed -->
<g id="node4" class="node">
<title>bed</title>
<ellipse fill="none" stroke="black" cx="569" cy="-34" rx="27.9" ry="18"/>
<text text-anchor="middle" x="569" y="-30.3" font-family="Times,serif" font-size="14.00">bed</text>
</g>
<!-- elevator -->
<g id="node5" class="node">
<title>elevator</title>
<ellipse fill="none" stroke="black" cx="468" cy="-142" rx="48.99" ry="18"/>
<text text-anchor="middle" x="468" y="-138.3" font-family="Times,serif" font-size="14.00">elevator</text>
</g>
<!-- hallway&#45;&gt;elevator -->
<g id="edge2" class="edge">
<title>hallway&#45;&gt;elevator</title>
<path fill="none" stroke="black" d="M470.52,-231.97C470.05,-215.38 469.33,-189.88 468.78,-170.43"/>
<polygon fill="black" stroke="black" points="472.27,-170.24 468.49,-160.34 465.28,-170.44 472.27,-170.24"/>
</g>
<!-- playerapartment -->
<g id="node8" class="node">
<title>playerapartment</title>
<ellipse fill="none" stroke="black" cx="694" cy="-142" rx="89.08" ry="18"/>
<text text-anchor="middle" x="694" y="-138.3" font-family="Times,serif" font-size="14.00">playerapartment</text>
</g>
<!-- hallway&#45;&gt;playerapartment -->
<g id="edge8" class="edge">
<title>hallway&#45;&gt;playerapartment</title>
<path fill="none" stroke="black" d="M508.45,-231.2C548.02,-212.39 610.32,-182.78 651.66,-163.13"/>
<polygon fill="black" stroke="black" points="506.77,-228.12 499.24,-235.58 509.78,-234.44 506.77,-228.12"/>
<polygon fill="black" stroke="black" points="653.39,-166.18 660.92,-158.73 650.38,-159.86 653.39,-166.18"/>
</g>
<!-- playerdoor -->
<g id="node9" class="node">
<title>playerdoor</title>
<ellipse fill="none" stroke="black" cx="942" cy="-34" rx="61.19" ry="18"/>
<text text-anchor="middle" x="942" y="-30.3" font-family="Times,serif" font-size="14.00">playerdoor</text>
</g>
<!-- hallway&#45;&gt;playerdoor -->
<g id="edge9" class="edge">
<title>hallway&#45;&gt;playerdoor</title>
<path fill="none" stroke="black" d="M525.03,-243.2C619.16,-232.23 808.31,-206.07 862,-168 899.13,-141.68 922.09,-92.19 933.41,-61.57"/>
<polygon fill="black" stroke="black" points="524.39,-239.75 514.86,-244.37 525.19,-246.7 524.39,-239.75"/>
<polygon fill="black" stroke="black" points="936.77,-62.56 936.81,-51.96 930.18,-60.22 936.77,-62.56"/>
</g>
<!-- meditation -->
<g id="node7" class="node">
<title>meditation</title>
<ellipse fill="none" stroke="black" cx="694" cy="-34" rx="61.19" ry="18"/>
<text text-anchor="middle" x="694" y="-30.3" font-family="Times,serif" font-size="14.00">meditation</text>
</g>
<!-- playerapartment&#45;&gt;bed -->
<g id="edge3" class="edge">
<title>playerapartment&#45;&gt;bed</title>
<path fill="none" stroke="black" d="M674.47,-124.44C652.48,-105.79 616.74,-75.48 593.05,-55.39"/>
<polygon fill="black" stroke="black" points="595.1,-52.55 585.21,-48.75 590.58,-57.89 595.1,-52.55"/>
</g>
<!-- playerapartment&#45;&gt;meditation -->
<g id="edge4" class="edge">
<title>playerapartment&#45;&gt;meditation</title>
<path fill="none" stroke="black" d="M694,-123.97C694,-107.38 694,-81.88 694,-62.43"/>
<polygon fill="black" stroke="black" points="697.5,-62.34 694,-52.34 690.5,-62.34 697.5,-62.34"/>
</g>
<!-- playerapartment&#45;&gt;playerdoor -->
<g id="edge10" class="edge">
<title>playerapartment&#45;&gt;playerdoor</title>
<path fill="none" stroke="black" d="M739.74,-121.45C785.36,-101.95 854.89,-72.23 899.38,-53.22"/>
<polygon fill="black" stroke="black" points="738.15,-118.32 730.33,-125.47 740.9,-124.76 738.15,-118.32"/>
<polygon fill="black" stroke="black" points="900.93,-56.36 908.75,-49.21 898.18,-49.92 900.93,-56.36"/>
</g>
<!-- tea -->
<g id="node10" class="node">
<title>tea</title>
<ellipse fill="none" stroke="black" cx="818" cy="-34" rx="27" ry="18"/>
<text text-anchor="middle" x="818" y="-30.3" font-family="Times,serif" font-size="14.00">tea</text>
</g>
<!-- playerapartment&#45;&gt;tea -->
<g id="edge5" class="edge">
<title>playerapartment&#45;&gt;tea</title>
<path fill="none" stroke="black" d="M713.65,-124.2C735.52,-105.51 770.85,-75.3 794.25,-55.3"/>
<polygon fill="black" stroke="black" points="796.67,-57.84 801.99,-48.68 792.12,-52.52 796.67,-57.84"/>
</g>
</g>
</svg>
