<?xml version="1.0" encoding="UTF-8" standalone="no"?>
<!DOCTYPE svg PUBLIC "-//W3C//DTD SVG 1.1//EN"
 "http://www.w3.org/Graphics/SVG/1.1/DTD/svg11.dtd">
<!-- Generated by graphviz version 2.43.0 (0)
 -->
<!-- Title: graph_downtown Pages: 1 -->
<svg width="1768pt" height="184pt"
 viewBox="0.00 0.00 1768.08 184.00" xmlns="http://www.w3.org/2000/svg" xmlns:xlink="http://www.w3.org/1999/xlink">
<g id="graph0" class="graph" transform="scale(1 1) rotate(0) translate(4 180)">
<title>graph_downtown</title>
<polygon fill="white" stroke="transparent" points="-4,4 -4,-180 1764.08,-180 1764.08,4 -4,4"/>
<g id="clust1" class="cluster">
<title>cluster_nearbyocean</title>
<polygon fill="none" stroke="black" points="205.54,-8 205.54,-168 607.54,-168 607.54,-8 205.54,-8"/>
</g>
<!-- building1entrance -->
<g id="node1" class="node">
<title>building1entrance</title>
<ellipse fill="none" stroke="black" cx="95.54" cy="-142" rx="95.58" ry="18"/>
<text text-anchor="middle" x="95.54" y="-138.3" font-family="Times,serif" font-size="14.00">building1entrance</text>
</g>
<!-- clinicentrance -->
<g id="node2" class="node">
<title>clinicentrance</title>
<ellipse fill="none" stroke="black" cx="289.54" cy="-34" rx="76.09" ry="18"/>
<text text-anchor="middle" x="289.54" y="-30.3" font-family="Times,serif" font-size="14.00">clinicentrance</text>
</g>
<!-- clinicwardentrance -->
<g id="node3" class="node">
<title>clinicwardentrance</title>
<ellipse fill="none" stroke="black" cx="500.54" cy="-34" rx="99.38" ry="18"/>
<text text-anchor="middle" x="500.54" y="-30.3" font-family="Times,serif" font-size="14.00">clinicwardentrance</text>
</g>
<!-- compoundentrance -->
<g id="node4" class="node">
<title>compoundentrance</title>
<ellipse fill="none" stroke="black" cx="714.54" cy="-142" rx="99.38" ry="18"/>
<text text-anchor="middle" x="714.54" y="-138.3" font-family="Times,serif" font-size="14.00">compoundentrance</text>
</g>
<!-- mallentrance -->
<g id="node5" class="node">
<title>mallentrance</title>
<ellipse fill="none" stroke="black" cx="921.54" cy="-142" rx="71.49" ry="18"/>
<text text-anchor="middle" x="921.54" y="-138.3" font-family="Times,serif" font-size="14.00">mallentrance</text>
</g>
<!-- plantshopentrance -->
<g id="node6" class="node">
<title>plantshopentrance</title>
<ellipse fill="none" stroke="black" cx="1126.54" cy="-142" rx="97.48" ry="18"/>
<text text-anchor="middle" x="1126.54" y="-138.3" font-family="Times,serif" font-size="14.00">plantshopentrance</text>
</g>
<!-- sewersentrance -->
<g id="node7" class="node">
<title>sewersentrance</title>
<ellipse fill="none" stroke="black" cx="1344.54" cy="-142" rx="84.49" ry="18"/>
<text text-anchor="middle" x="1344.54" y="-138.3" font-family="Times,serif" font-size="14.00">sewersentrance</text>
</g>
<!-- twinpeaksapartmententrance -->
<g id="node8" class="node">
<title>twinpeaksapartmententrance</title>
<ellipse fill="none" stroke="black" cx="1612.54" cy="-142" rx="147.57" ry="18"/>
<text text-anchor="middle" x="1612.54" y="-138.3" font-family="Times,serif" font-size="14.00">twinpeaksapartmententrance</text>
</g>
<!-- nearbyocean -->
<g id="node9" class="node">
<title>nearbyocean</title>
<ellipse fill="none" stroke="black" cx="398.54" cy="-142" rx="69.59" ry="18"/>
<text text-anchor="middle" x="398.54" y="-138.3" font-family="Times,serif" font-size="14.00">nearbyocean</text>
</g>
<!-- nearbyocean&#45;&gt;clinicentrance -->
<g id="edge1" class="edge">
<title>nearbyocean&#45;&gt;clinicentrance</title>
<path fill="none" stroke="black" d="M381.51,-124.44C363.46,-106.88 334.78,-78.99 314.24,-59.02"/>
<polygon fill="black" stroke="black" points="316.42,-56.26 306.81,-51.8 311.54,-61.28 316.42,-56.26"/>
</g>
<!-- nearbyocean&#45;&gt;clinicwardentrance -->
<g id="edge2" class="edge">
<title>nearbyocean&#45;&gt;clinicwardentrance</title>
<path fill="none" stroke="black" d="M414.48,-124.44C431.37,-106.88 458.21,-78.99 477.43,-59.02"/>
<polygon fill="black" stroke="black" points="479.97,-61.43 484.38,-51.8 474.92,-56.57 479.97,-61.43"/>
</g>
</g>
</svg>
