<?xml version="1.0" encoding="UTF-8" standalone="no"?>
<!DOCTYPE svg PUBLIC "-//W3C//DTD SVG 1.1//EN"
 "http://www.w3.org/Graphics/SVG/1.1/DTD/svg11.dtd">
<!-- Generated by graphviz version 2.43.0 (0)
 -->
<!-- Title: graph_mall Pages: 1 -->
<svg width="462pt" height="476pt"
 viewBox="0.00 0.00 461.84 476.00" xmlns="http://www.w3.org/2000/svg" xmlns:xlink="http://www.w3.org/1999/xlink">
<g id="graph0" class="graph" transform="scale(1 1) rotate(0) translate(4 472)">
<title>graph_mall</title>
<polygon fill="white" stroke="transparent" points="-4,4 -4,-472 457.84,-472 457.84,4 -4,4"/>
<!-- exitzone -->
<g id="node1" class="node">
<title>exitzone</title>
<ellipse fill="none" stroke="black" cx="50.05" cy="-450" rx="50.09" ry="18"/>
<text text-anchor="middle" x="50.05" y="-446.3" font-family="Times,serif" font-size="14.00">exitzone</text>
</g>
<!-- goodwater -->
<g id="node2" class="node">
<title>goodwater</title>
<ellipse fill="none" stroke="black" cx="394.05" cy="-450" rx="59.59" ry="18"/>
<text text-anchor="middle" x="394.05" y="-446.3" font-family="Times,serif" font-size="14.00">goodwater</text>
</g>
<!-- aisle2 -->
<g id="node5" class="node">
<title>aisle2</title>
<ellipse fill="none" stroke="black" cx="174.05" cy="-342" rx="38.19" ry="18"/>
<text text-anchor="middle" x="174.05" y="-338.3" font-family="Times,serif" font-size="14.00">aisle2</text>
</g>
<!-- goodwater&#45;&gt;aisle2 -->
<g id="edge1" class="edge">
<title>goodwater&#45;&gt;aisle2</title>
<path fill="none" stroke="black" d="M358.73,-431.99C316.1,-411.45 245.12,-377.25 204.7,-357.77"/>
<polygon fill="black" stroke="black" points="364.72,-429.32 360.38,-438.33 358.58,-437.46 362.92,-428.45 364.72,-429.32"/>
<polyline fill="none" stroke="black" points="363.46,-434.26 358.95,-432.09 "/>
<polygon fill="black" stroke="black" points="198.65,-360.41 202.99,-351.4 204.8,-352.27 200.45,-361.27 198.65,-360.41"/>
<polyline fill="none" stroke="black" points="199.92,-355.47 204.43,-357.64 "/>
</g>
<!-- fridges -->
<g id="node8" class="node">
<title>fridges</title>
<ellipse fill="none" stroke="black" cx="258.05" cy="-18" rx="43.59" ry="18"/>
<text text-anchor="middle" x="258.05" y="-14.3" font-family="Times,serif" font-size="14.00">fridges</text>
</g>
<!-- goodwater&#45;&gt;fridges -->
<g id="edge2" class="edge">
<title>goodwater&#45;&gt;fridges</title>
<path fill="none" stroke="black" d="M406.64,-427.51C429.45,-385.66 472.69,-290.77 444.05,-216 412.64,-134.04 328.2,-66.9 284.72,-36.52"/>
<polygon fill="black" stroke="black" points="408.96,-433.65 400.2,-428.82 401.17,-427.07 409.92,-431.9 408.96,-433.65"/>
<polyline fill="none" stroke="black" points="404.1,-432.11 406.52,-427.73 "/>
<polygon fill="black" stroke="black" points="278.37,-38.2 284.06,-29.98 285.71,-31.12 280.01,-39.34 278.37,-38.2"/>
<polyline fill="none" stroke="black" points="280.39,-33.52 284.5,-36.36 "/>
</g>
<!-- fruitsandveggies -->
<g id="node3" class="node">
<title>fruitsandveggies</title>
<ellipse fill="none" stroke="black" cx="337.05" cy="-234" rx="89.08" ry="18"/>
<text text-anchor="middle" x="337.05" y="-230.3" font-family="Times,serif" font-size="14.00">fruitsandveggies</text>
</g>
<!-- aisle4 -->
<g id="node7" class="node">
<title>aisle4</title>
<ellipse fill="none" stroke="black" cx="258.05" cy="-126" rx="38.19" ry="18"/>
<text text-anchor="middle" x="258.05" y="-122.3" font-family="Times,serif" font-size="14.00">aisle4</text>
</g>
<!-- fruitsandveggies&#45;&gt;aisle4 -->
<g id="edge3" class="edge">
<title>fruitsandveggies&#45;&gt;aisle4</title>
<path fill="none" stroke="black" d="M321.26,-211.82C307.27,-193.05 286.99,-165.84 273.2,-147.33"/>
<polygon fill="black" stroke="black" points="327.76,-212.18 319.75,-218.16 318.55,-216.55 326.57,-210.58 327.76,-212.18"/>
<polyline fill="none" stroke="black" points="324.35,-215.97 321.36,-211.96 "/>
<polygon fill="black" stroke="black" points="266.78,-147.08 274.79,-141.11 275.99,-142.71 267.97,-148.69 266.78,-147.08"/>
<polyline fill="none" stroke="black" points="270.19,-143.29 273.18,-147.3 "/>
</g>
<!-- fruitsandveggies&#45;&gt;fridges -->
<g id="edge4" class="edge">
<title>fruitsandveggies&#45;&gt;fridges</title>
<path fill="none" stroke="black" d="M335.5,-210.68C333.15,-185.12 327.44,-142.36 314.05,-108 304.2,-82.76 286.95,-56.87 274.19,-39.57"/>
<polygon fill="black" stroke="black" points="340.84,-214.43 330.88,-215.3 330.71,-213.31 340.67,-212.44 340.84,-214.43"/>
<polyline fill="none" stroke="black" points="335.95,-215.86 335.52,-210.88 "/>
<polygon fill="black" stroke="black" points="267.64,-39.15 275.65,-33.17 276.85,-34.77 268.83,-40.75 267.64,-39.15"/>
<polyline fill="none" stroke="black" points="271.05,-35.36 274.04,-39.37 "/>
</g>
<!-- aisle1 -->
<g id="node4" class="node">
<title>aisle1</title>
<ellipse fill="none" stroke="black" cx="174.05" cy="-450" rx="38.19" ry="18"/>
<text text-anchor="middle" x="174.05" y="-446.3" font-family="Times,serif" font-size="14.00">aisle1</text>
</g>
<!-- aisle1&#45;&gt;aisle2 -->
<g id="edge5" class="edge">
<title>aisle1&#45;&gt;aisle2</title>
<path fill="none" stroke="black" d="M174.05,-426.89C174.05,-408.97 174.05,-383.8 174.05,-365.71"/>
<polygon fill="black" stroke="black" points="179.05,-430.97 169.05,-430.97 169.05,-428.97 179.05,-428.97 179.05,-430.97"/>
<polyline fill="none" stroke="black" points="174.05,-431.97 174.05,-426.97 "/>
<polygon fill="black" stroke="black" points="169.05,-361.34 179.05,-361.34 179.05,-363.34 169.05,-363.34 169.05,-361.34"/>
<polyline fill="none" stroke="black" points="174.05,-360.34 174.05,-365.34 "/>
</g>
<!-- aisle3 -->
<g id="node6" class="node">
<title>aisle3</title>
<ellipse fill="none" stroke="black" cx="174.05" cy="-234" rx="38.19" ry="18"/>
<text text-anchor="middle" x="174.05" y="-230.3" font-family="Times,serif" font-size="14.00">aisle3</text>
</g>
<!-- aisle2&#45;&gt;aisle3 -->
<g id="edge6" class="edge">
<title>aisle2&#45;&gt;aisle3</title>
<path fill="none" stroke="black" d="M174.05,-318.89C174.05,-300.97 174.05,-275.8 174.05,-257.71"/>
<polygon fill="black" stroke="black" points="179.05,-322.97 169.05,-322.97 169.05,-320.97 179.05,-320.97 179.05,-322.97"/>
<polyline fill="none" stroke="black" points="174.05,-323.97 174.05,-318.97 "/>
<polygon fill="black" stroke="black" points="169.05,-253.34 179.05,-253.34 179.05,-255.34 169.05,-255.34 169.05,-253.34"/>
<polyline fill="none" stroke="black" points="174.05,-252.34 174.05,-257.34 "/>
</g>
<!-- aisle2&#45;&gt;fridges -->
<g id="edge7" class="edge">
<title>aisle2&#45;&gt;fridges</title>
<path fill="none" stroke="black" d="M155.48,-321.03C135.39,-296.95 107.54,-254.84 118.05,-216 138.35,-140.88 202.71,-71.21 236.64,-38.52"/>
<polygon fill="black" stroke="black" points="162.04,-321.03 154.42,-327.51 153.13,-325.98 160.74,-319.5 162.04,-321.03"/>
<polyline fill="none" stroke="black" points="158.88,-325.03 155.64,-321.22 "/>
<polygon fill="black" stroke="black" points="236.45,-31.79 243.35,-39.02 241.91,-40.41 235,-33.17 236.45,-31.79"/>
<polyline fill="none" stroke="black" points="240.62,-34.72 237.01,-38.17 "/>
</g>
<!-- aisle3&#45;&gt;aisle4 -->
<g id="edge8" class="edge">
<title>aisle3&#45;&gt;aisle4</title>
<path fill="none" stroke="black" d="M190.09,-212.76C204.97,-193.98 227,-166.17 241.91,-147.36"/>
<polygon fill="black" stroke="black" points="191.34,-219.22 183.51,-213.01 184.75,-211.44 192.59,-217.66 191.34,-219.22"/>
<polyline fill="none" stroke="black" points="186.8,-216.9 189.91,-212.98 "/>
<polygon fill="black" stroke="black" points="240.63,-140.93 248.47,-147.14 247.22,-148.71 239.39,-142.5 240.63,-140.93"/>
<polyline fill="none" stroke="black" points="245.17,-143.25 242.06,-147.17 "/>
</g>
<!-- aisle3&#45;&gt;fridges -->
<g id="edge9" class="edge">
<title>aisle3&#45;&gt;fridges</title>
<path fill="none" stroke="black" d="M176.71,-210.68C180.28,-185.13 187.88,-142.36 202.05,-108 212.37,-82.95 229.55,-57.03 242.16,-39.67"/>
<polygon fill="black" stroke="black" points="181.09,-215.55 171.18,-214.2 171.45,-212.22 181.36,-213.56 181.09,-215.55"/>
<polyline fill="none" stroke="black" points="176,-215.87 176.67,-210.91 "/>
<polygon fill="black" stroke="black" points="240.64,-33.29 248.7,-39.21 247.52,-40.82 239.46,-34.9 240.64,-33.29"/>
<polyline fill="none" stroke="black" points="245.26,-35.45 242.3,-39.48 "/>
</g>
<!-- aisle4&#45;&gt;fridges -->
<g id="edge10" class="edge">
<title>aisle4&#45;&gt;fridges</title>
<path fill="none" stroke="black" d="M258.05,-102.89C258.05,-84.97 258.05,-59.8 258.05,-41.71"/>
<polygon fill="black" stroke="black" points="263.05,-106.97 253.05,-106.97 253.05,-104.97 263.05,-104.97 263.05,-106.97"/>
<polyline fill="none" stroke="black" points="258.05,-107.97 258.05,-102.97 "/>
<polygon fill="black" stroke="black" points="253.05,-37.34 263.05,-37.34 263.05,-39.34 253.05,-39.34 253.05,-37.34"/>
<polyline fill="none" stroke="black" points="258.05,-36.34 258.05,-41.34 "/>
</g>
</g>
</svg>
